<svg xmlns="http://www.w3.org/2000/svg" xmlns:xlink="http://www.w3.org/1999/xlink" width="500" zoomAndPan="magnify" viewBox="0 0 375 374.999991" height="500" preserveAspectRatio="xMidYMid meet" version="1.0"><defs><g/><clipPath id="8f9e734060"><path d="M 98.632812 37.5 L 268 37.5 L 268 216 L 98.632812 216 Z M 98.632812 37.5 " clip-rule="nonzero"/></clipPath><clipPath id="8807e44d54"><path d="M 187 126 L 276.382812 126 L 276.382812 216 L 187 216 Z M 187 126 " clip-rule="nonzero"/></clipPath><clipPath id="d40b3fe296"><path d="M 208.078125 145.648438 L 260.792969 145.648438 L 260.792969 198.363281 L 208.078125 198.363281 Z M 208.078125 145.648438 " clip-rule="nonzero"/></clipPath><clipPath id="a9aa6fcfd2"><path d="M 234.4375 145.648438 C 219.878906 145.648438 208.078125 157.449219 208.078125 172.007812 C 208.078125 186.5625 219.878906 198.363281 234.4375 198.363281 C 248.992188 198.363281 260.792969 186.5625 260.792969 172.007812 C 260.792969 157.449219 248.992188 145.648438 234.4375 145.648438 " clip-rule="nonzero"/></clipPath><clipPath id="a8f713d82f"><path d="M 195.015625 132.585938 L 273.765625 132.585938 L 273.765625 211.335938 L 195.015625 211.335938 Z M 195.015625 132.585938 " clip-rule="nonzero"/></clipPath></defs><g clip-path="url(#8f9e734060)"><path fill="#62b334" d="M 185.503906 204.835938 L 182.941406 206.121094 L 107.605469 172.578125 L 107.605469 84.484375 L 181.25 117.277344 C 181.820312 117.535156 182.421875 117.660156 183.050781 117.660156 C 183.679688 117.660156 184.28125 117.535156 184.855469 117.277344 L 258.496094 84.484375 L 258.496094 122.109375 C 258.496094 122.398438 258.527344 122.6875 258.585938 122.96875 C 258.648438 123.253906 258.730469 123.53125 258.84375 123.796875 C 258.957031 124.0625 259.09375 124.316406 259.257812 124.558594 C 259.421875 124.796875 259.605469 125.019531 259.808594 125.226562 C 260.015625 125.429688 260.238281 125.613281 260.480469 125.773438 C 260.722656 125.933594 260.976562 126.066406 261.246094 126.179688 C 261.511719 126.289062 261.789062 126.371094 262.074219 126.429688 C 262.355469 126.484375 262.644531 126.511719 262.933594 126.511719 C 263.222656 126.511719 263.507812 126.484375 263.792969 126.429688 C 264.078125 126.371094 264.355469 126.289062 264.621094 126.179688 C 264.890625 126.066406 265.144531 125.933594 265.386719 125.773438 C 265.625 125.613281 265.851562 125.429688 266.054688 125.226562 C 266.261719 125.019531 266.445312 124.796875 266.609375 124.558594 C 266.769531 124.316406 266.90625 124.0625 267.019531 123.796875 C 267.132812 123.53125 267.21875 123.253906 267.277344 122.96875 C 267.335938 122.6875 267.367188 122.398438 267.371094 122.109375 L 267.371094 77.644531 C 267.371094 77.214844 267.308594 76.792969 267.1875 76.378906 C 267.066406 75.96875 266.886719 75.582031 266.652344 75.222656 C 266.421875 74.859375 266.140625 74.539062 265.8125 74.261719 C 265.488281 73.980469 265.128906 73.753906 264.734375 73.582031 L 184.855469 38.007812 C 184.28125 37.753906 183.679688 37.625 183.050781 37.625 C 182.421875 37.625 181.820312 37.753906 181.25 38.007812 L 101.367188 73.582031 C 100.972656 73.753906 100.613281 73.980469 100.289062 74.261719 C 99.960938 74.539062 99.683594 74.859375 99.449219 75.222656 C 99.214844 75.582031 99.035156 75.96875 98.914062 76.378906 C 98.792969 76.792969 98.730469 77.214844 98.730469 77.644531 L 98.730469 175.464844 C 98.730469 175.894531 98.792969 176.316406 98.914062 176.730469 C 99.035156 177.140625 99.214844 177.527344 99.449219 177.886719 C 99.683594 178.25 99.960938 178.570312 100.289062 178.847656 C 100.613281 179.125 100.972656 179.351562 101.367188 179.527344 L 181.25 215.101562 C 181.855469 215.371094 182.488281 215.496094 183.152344 215.484375 C 183.8125 215.46875 184.441406 215.3125 185.035156 215.015625 L 189.472656 212.792969 C 189.734375 212.664062 189.980469 212.511719 190.214844 212.332031 C 190.445312 212.152344 190.65625 211.953125 190.851562 211.734375 C 191.042969 211.511719 191.210938 211.273438 191.359375 211.019531 C 191.503906 210.765625 191.625 210.5 191.714844 210.222656 C 191.808594 209.945312 191.875 209.660156 191.914062 209.371094 C 191.949219 209.078125 191.957031 208.789062 191.9375 208.496094 C 191.917969 208.203125 191.867188 207.914062 191.792969 207.632812 C 191.714844 207.351562 191.609375 207.078125 191.480469 206.816406 C 191.347656 206.554688 191.195312 206.308594 191.015625 206.074219 C 190.835938 205.84375 190.632812 205.632812 190.414062 205.441406 C 190.191406 205.25 189.953125 205.082031 189.699219 204.9375 C 189.445312 204.792969 189.179688 204.671875 188.902344 204.582031 C 188.625 204.488281 188.339844 204.425781 188.050781 204.390625 C 187.757812 204.355469 187.46875 204.347656 187.175781 204.371094 C 186.882812 204.390625 186.597656 204.441406 186.316406 204.519531 C 186.035156 204.601562 185.761719 204.707031 185.503906 204.839844 Z M 183.050781 108.347656 L 151.652344 94.367188 L 220.355469 63.773438 C 220.4375 63.738281 220.5 63.6875 220.578125 63.648438 L 252.003906 77.644531 Z M 183.050781 46.9375 L 209.679688 58.796875 L 141.308594 89.242188 C 141.132812 89.328125 140.960938 89.425781 140.796875 89.535156 L 114.097656 77.644531 Z M 183.050781 46.9375 " fill-opacity="1" fill-rule="nonzero"/></g><g clip-path="url(#8807e44d54)"><path fill="#62b334" d="M 231.867188 126.554688 C 230.414062 126.554688 228.964844 126.625 227.519531 126.769531 C 226.070312 126.910156 224.636719 127.125 223.210938 127.410156 C 221.785156 127.691406 220.375 128.046875 218.984375 128.46875 C 217.59375 128.890625 216.226562 129.382812 214.882812 129.9375 C 213.542969 130.496094 212.230469 131.117188 210.949219 131.804688 C 209.664062 132.492188 208.421875 133.238281 207.210938 134.046875 C 206.003906 134.855469 204.835938 135.722656 203.714844 136.648438 C 202.589844 137.570312 201.515625 138.546875 200.488281 139.578125 C 199.460938 140.609375 198.484375 141.6875 197.5625 142.8125 C 196.640625 143.9375 195.773438 145.105469 194.96875 146.316406 C 194.160156 147.527344 193.414062 148.773438 192.730469 150.058594 C 192.042969 151.34375 191.421875 152.65625 190.867188 154.003906 C 190.308594 155.347656 189.820312 156.71875 189.398438 158.113281 C 188.976562 159.503906 188.625 160.917969 188.339844 162.34375 C 188.058594 163.773438 187.84375 165.210938 187.703125 166.660156 C 187.558594 168.109375 187.488281 169.5625 187.488281 171.019531 C 187.488281 172.476562 187.558594 173.929688 187.703125 175.378906 C 187.84375 176.828125 188.058594 178.265625 188.339844 179.695312 C 188.625 181.121094 188.976562 182.535156 189.398438 183.925781 C 189.820312 185.320312 190.308594 186.691406 190.867188 188.035156 C 191.421875 189.382812 192.042969 190.695312 192.730469 191.980469 C 193.414062 193.265625 194.160156 194.511719 194.96875 195.722656 C 195.773438 196.933594 196.640625 198.101562 197.5625 199.226562 C 198.484375 200.355469 199.457031 201.429688 200.488281 202.460938 C 201.515625 203.492188 202.589844 204.46875 203.714844 205.390625 C 204.835938 206.316406 206.003906 207.183594 207.210938 207.992188 C 208.421875 208.800781 209.664062 209.546875 210.949219 210.234375 C 212.230469 210.921875 213.542969 211.542969 214.882812 212.101562 C 216.226562 212.65625 217.59375 213.148438 218.984375 213.570312 C 220.375 213.992188 221.785156 214.347656 223.210938 214.628906 C 224.636719 214.914062 226.070312 215.128906 227.515625 215.269531 C 228.964844 215.414062 230.414062 215.484375 231.867188 215.484375 C 233.320312 215.484375 234.769531 215.414062 236.21875 215.269531 C 237.664062 215.128906 239.101562 214.914062 240.523438 214.628906 C 241.949219 214.347656 243.359375 213.992188 244.75 213.570312 C 246.140625 213.148438 247.507812 212.65625 248.851562 212.101562 C 250.195312 211.542969 251.503906 210.921875 252.789062 210.234375 C 254.070312 209.546875 255.316406 208.800781 256.523438 207.992188 C 257.730469 207.183594 258.898438 206.316406 260.019531 205.390625 C 261.144531 204.46875 262.21875 203.492188 263.25 202.460938 C 264.277344 201.429688 265.25 200.355469 266.171875 199.226562 C 267.09375 198.101562 267.960938 196.933594 268.765625 195.722656 C 269.574219 194.511719 270.320312 193.265625 271.007812 191.980469 C 271.691406 190.695312 272.3125 189.382812 272.867188 188.035156 C 273.425781 186.691406 273.914062 185.320312 274.335938 183.925781 C 274.757812 182.535156 275.109375 181.121094 275.394531 179.695312 C 275.675781 178.265625 275.890625 176.828125 276.03125 175.378906 C 276.175781 173.929688 276.246094 172.476562 276.246094 171.019531 C 276.246094 169.5625 276.171875 168.113281 276.027344 166.664062 C 275.882812 165.214844 275.671875 163.777344 275.386719 162.347656 C 275.101562 160.921875 274.746094 159.511719 274.324219 158.117188 C 273.902344 156.726562 273.410156 155.355469 272.855469 154.011719 C 272.296875 152.667969 271.675781 151.351562 270.992188 150.070312 C 270.304688 148.785156 269.558594 147.539062 268.753906 146.328125 C 267.945312 145.117188 267.078125 143.949219 266.15625 142.824219 C 265.234375 141.699219 264.261719 140.621094 263.234375 139.59375 C 262.207031 138.5625 261.132812 137.585938 260.007812 136.664062 C 258.886719 135.738281 257.71875 134.871094 256.511719 134.0625 C 255.304688 133.253906 254.058594 132.507812 252.777344 131.820312 C 251.496094 131.132812 250.183594 130.511719 248.84375 129.953125 C 247.5 129.394531 246.136719 128.902344 244.746094 128.480469 C 243.355469 128.058594 241.945312 127.703125 240.523438 127.417969 C 239.097656 127.132812 237.660156 126.917969 236.214844 126.773438 C 234.769531 126.628906 233.320312 126.554688 231.867188 126.554688 Z M 231.867188 206.589844 C 230.707031 206.589844 229.546875 206.535156 228.386719 206.421875 C 227.230469 206.304688 226.082031 206.136719 224.941406 205.90625 C 223.800781 205.679688 222.675781 205.398438 221.5625 205.058594 C 220.449219 204.722656 219.355469 204.328125 218.28125 203.882812 C 217.207031 203.4375 216.15625 202.941406 215.132812 202.390625 C 214.105469 201.84375 213.109375 201.242188 212.144531 200.597656 C 211.175781 199.949219 210.242188 199.257812 209.34375 198.515625 C 208.445312 197.777344 207.585938 196.996094 206.761719 196.171875 C 205.941406 195.347656 205.160156 194.488281 204.421875 193.585938 C 203.6875 192.683594 202.996094 191.75 202.347656 190.78125 C 201.703125 189.8125 201.105469 188.816406 200.558594 187.789062 C 200.007812 186.761719 199.511719 185.707031 199.066406 184.632812 C 198.621094 183.554688 198.230469 182.460938 197.894531 181.34375 C 197.554688 180.230469 197.273438 179.101562 197.046875 177.960938 C 196.820312 176.816406 196.648438 175.664062 196.535156 174.507812 C 196.421875 173.347656 196.363281 172.183594 196.363281 171.019531 C 196.363281 169.855469 196.421875 168.691406 196.535156 167.53125 C 196.648438 166.375 196.820312 165.222656 197.046875 164.078125 C 197.273438 162.9375 197.554688 161.808594 197.894531 160.695312 C 198.230469 159.578125 198.621094 158.484375 199.066406 157.40625 C 199.511719 156.332031 200.007812 155.277344 200.558594 154.25 C 201.105469 153.222656 201.703125 152.226562 202.347656 151.257812 C 202.996094 150.289062 203.6875 149.355469 204.421875 148.453125 C 205.160156 147.550781 205.941406 146.691406 206.761719 145.867188 C 207.585938 145.042969 208.445312 144.261719 209.34375 143.523438 C 210.242188 142.785156 211.175781 142.089844 212.144531 141.441406 C 213.109375 140.796875 214.105469 140.199219 215.132812 139.648438 C 216.15625 139.097656 217.207031 138.601562 218.28125 138.15625 C 219.355469 137.710938 220.449219 137.316406 221.5625 136.980469 C 222.675781 136.640625 223.800781 136.359375 224.941406 136.132812 C 226.082031 135.902344 227.230469 135.734375 228.386719 135.621094 C 229.546875 135.503906 230.707031 135.449219 231.867188 135.449219 C 233.03125 135.449219 234.191406 135.503906 235.347656 135.621094 C 236.503906 135.734375 237.652344 135.902344 238.792969 136.132812 C 239.933594 136.359375 241.0625 136.640625 242.171875 136.980469 C 243.285156 137.316406 244.378906 137.710938 245.453125 138.15625 C 246.527344 138.601562 247.578125 139.097656 248.605469 139.648438 C 249.628906 140.199219 250.625 140.796875 251.59375 141.441406 C 252.558594 142.089844 253.492188 142.785156 254.390625 143.523438 C 255.289062 144.261719 256.148438 145.042969 256.972656 145.867188 C 257.792969 146.691406 258.574219 147.550781 259.3125 148.453125 C 260.050781 149.355469 260.742188 150.289062 261.386719 151.257812 C 262.035156 152.226562 262.628906 153.222656 263.179688 154.25 C 263.726562 155.277344 264.222656 156.332031 264.667969 157.40625 C 265.113281 158.484375 265.503906 159.578125 265.84375 160.695312 C 266.179688 161.808594 266.460938 162.9375 266.6875 164.078125 C 266.914062 165.222656 267.085938 166.375 267.199219 167.53125 C 267.3125 168.691406 267.371094 169.855469 267.371094 171.019531 C 267.371094 172.183594 267.3125 173.347656 267.195312 174.503906 C 267.082031 175.664062 266.910156 176.8125 266.683594 177.957031 C 266.453125 179.097656 266.171875 180.226562 265.832031 181.339844 C 265.496094 182.457031 265.101562 183.550781 264.65625 184.625 C 264.210938 185.703125 263.714844 186.753906 263.167969 187.78125 C 262.617188 188.808594 262.019531 189.804688 261.375 190.773438 C 260.730469 191.742188 260.035156 192.675781 259.300781 193.574219 C 258.5625 194.476562 257.78125 195.335938 256.960938 196.160156 C 256.136719 196.984375 255.277344 197.765625 254.378906 198.503906 C 253.480469 199.242188 252.550781 199.9375 251.582031 200.582031 C 250.617188 201.230469 249.621094 201.828125 248.597656 202.378906 C 247.570312 202.929688 246.523438 203.425781 245.449219 203.871094 C 244.375 204.320312 243.28125 204.710938 242.167969 205.050781 C 241.058594 205.390625 239.929688 205.671875 238.792969 205.902344 C 237.652344 206.128906 236.503906 206.300781 235.347656 206.417969 C 234.191406 206.53125 233.03125 206.589844 231.867188 206.589844 Z M 231.867188 206.589844 " fill-opacity="1" fill-rule="nonzero"/></g><path fill="#62b334" d="M 246.480469 158.984375 L 227.429688 178.070312 L 219.472656 170.097656 C 219.269531 169.890625 219.042969 169.699219 218.800781 169.535156 C 218.558594 169.367188 218.304688 169.230469 218.03125 169.113281 C 217.761719 169 217.484375 168.910156 217.195312 168.851562 C 216.910156 168.792969 216.617188 168.761719 216.324219 168.761719 C 216.03125 168.757812 215.742188 168.785156 215.453125 168.84375 C 215.164062 168.898438 214.882812 168.980469 214.613281 169.09375 C 214.339844 169.207031 214.082031 169.34375 213.839844 169.507812 C 213.59375 169.667969 213.367188 169.855469 213.160156 170.0625 C 212.953125 170.269531 212.769531 170.496094 212.605469 170.742188 C 212.441406 170.988281 212.304688 171.246094 212.195312 171.515625 C 212.082031 171.789062 212 172.070312 211.941406 172.359375 C 211.886719 172.648438 211.859375 172.9375 211.863281 173.230469 C 211.863281 173.527344 211.894531 173.816406 211.953125 174.105469 C 212.011719 174.394531 212.097656 174.671875 212.214844 174.945312 C 212.328125 175.214844 212.46875 175.472656 212.632812 175.714844 C 212.800781 175.957031 212.988281 176.179688 213.199219 176.386719 L 224.292969 187.503906 C 224.5 187.710938 224.722656 187.894531 224.964844 188.054688 C 225.207031 188.21875 225.460938 188.355469 225.730469 188.46875 C 226 188.578125 226.277344 188.664062 226.5625 188.71875 C 226.851562 188.777344 227.136719 188.804688 227.429688 188.804688 C 227.722656 188.804688 228.011719 188.777344 228.296875 188.71875 C 228.582031 188.664062 228.859375 188.578125 229.128906 188.46875 C 229.398438 188.355469 229.652344 188.21875 229.894531 188.054688 C 230.136719 187.894531 230.363281 187.710938 230.566406 187.503906 L 252.757812 165.269531 C 252.960938 165.0625 253.140625 164.839844 253.296875 164.597656 C 253.457031 164.351562 253.589844 164.097656 253.699219 163.828125 C 253.804688 163.558594 253.886719 163.285156 253.941406 163 C 253.996094 162.714844 254.023438 162.425781 254.019531 162.136719 C 254.019531 161.847656 253.988281 161.5625 253.933594 161.277344 C 253.875 160.992188 253.789062 160.71875 253.679688 160.449219 C 253.566406 160.183594 253.429688 159.929688 253.269531 159.6875 C 253.109375 159.445312 252.925781 159.222656 252.722656 159.019531 C 252.515625 158.8125 252.292969 158.632812 252.054688 158.46875 C 251.8125 158.308594 251.558594 158.171875 251.292969 158.058594 C 251.027344 157.949219 250.75 157.863281 250.46875 157.804688 C 250.183594 157.75 249.898438 157.71875 249.609375 157.71875 C 249.320312 157.714844 249.03125 157.742188 248.75 157.796875 C 248.464844 157.851562 248.1875 157.933594 247.921875 158.039062 C 247.652344 158.148438 247.398438 158.28125 247.15625 158.441406 C 246.914062 158.601562 246.6875 158.78125 246.480469 158.984375 Z M 246.480469 158.984375 " fill-opacity="1" fill-rule="nonzero"/><g clip-path="url(#d40b3fe296)"><g clip-path="url(#a9aa6fcfd2)"><path fill="#ffffff" d="M 208.078125 145.648438 L 260.792969 145.648438 L 260.792969 198.363281 L 208.078125 198.363281 Z M 208.078125 145.648438 " fill-opacity="1" fill-rule="nonzero"/></g></g><g clip-path="url(#a8f713d82f)"><path fill="#62b334" d="M 234.390625 211.335938 C 256.136719 211.335938 273.765625 193.707031 273.765625 171.960938 C 273.765625 150.214844 256.136719 132.585938 234.390625 132.585938 C 212.644531 132.585938 195.015625 150.214844 195.015625 171.960938 C 195.015625 193.707031 212.644531 211.335938 234.390625 211.335938 Z M 227.140625 152.0625 L 241.675781 152.0625 C 244.695312 152.0625 247.128906 154.496094 247.128906 157.515625 L 247.128906 186.585938 C 247.128906 189.601562 244.695312 192.039062 241.675781 192.039062 L 227.140625 192.039062 C 224.125 192.039062 221.691406 189.601562 221.691406 186.585938 L 221.691406 157.515625 C 221.691406 154.496094 224.125 152.0625 227.140625 152.0625 Z M 225.324219 182.953125 L 243.496094 182.953125 L 243.496094 157.515625 L 225.324219 157.515625 Z M 230.773438 188.402344 L 238.042969 188.402344 L 238.042969 186.585938 L 230.773438 186.585938 Z M 230.773438 188.402344 " fill-opacity="1" fill-rule="evenodd"/></g><g fill="#000000" fill-opacity="1"><g transform="translate(50.391636, 278.53423)"><g><path d="M 3.171875 -26.703125 L 9.34375 -26.703125 L 9.34375 0 L 3.171875 0 Z M 3.171875 -26.703125 "/></g></g></g><g fill="#000000" fill-opacity="1"><g transform="translate(64.848754, 278.53423)"><g><path d="M 27.65625 -26.703125 L 27.65625 0 L 22.59375 0 L 9.265625 -16.21875 L 9.265625 0 L 3.171875 0 L 3.171875 -26.703125 L 8.28125 -26.703125 L 21.5625 -10.5 L 21.5625 -26.703125 Z M 27.65625 -26.703125 "/></g></g></g><g fill="#000000" fill-opacity="1"><g transform="translate(97.614864, 278.53423)"><g><path d="M 28.84375 -26.703125 L 17.28125 0 L 11.1875 0 L -0.34375 -26.703125 L 6.328125 -26.703125 L 14.46875 -7.625 L 22.703125 -26.703125 Z M 28.84375 -26.703125 "/></g></g></g><g fill="#000000" fill-opacity="1"><g transform="translate(128.016067, 278.53423)"><g><path d="M 23.84375 -4.953125 L 23.84375 0 L 3.171875 0 L 3.171875 -26.703125 L 23.359375 -26.703125 L 23.359375 -21.75 L 9.3125 -21.75 L 9.3125 -15.953125 L 21.703125 -15.953125 L 21.703125 -11.140625 L 9.3125 -11.140625 L 9.3125 -4.953125 Z M 23.84375 -4.953125 "/></g></g></g><g fill="#000000" fill-opacity="1"><g transform="translate(155.556489, 278.53423)"><g><path d="M 27.65625 -26.703125 L 27.65625 0 L 22.59375 0 L 9.265625 -16.21875 L 9.265625 0 L 3.171875 0 L 3.171875 -26.703125 L 8.28125 -26.703125 L 21.5625 -10.5 L 21.5625 -26.703125 Z M 27.65625 -26.703125 "/></g></g></g><g fill="#000000" fill-opacity="1"><g transform="translate(188.322596, 278.53423)"><g><path d="M 8.703125 -21.671875 L 0.15625 -21.671875 L 0.15625 -26.703125 L 23.421875 -26.703125 L 23.421875 -21.671875 L 14.875 -21.671875 L 14.875 0 L 8.703125 0 Z M 8.703125 -21.671875 "/></g></g></g><g fill="#000000" fill-opacity="1"><g transform="translate(213.841392, 278.53423)"><g><path d="M 16.109375 0.453125 C 13.328125 0.453125 10.820312 -0.140625 8.59375 -1.328125 C 6.375 -2.523438 4.632812 -4.171875 3.375 -6.265625 C 2.113281 -8.367188 1.484375 -10.734375 1.484375 -13.359375 C 1.484375 -15.972656 2.113281 -18.328125 3.375 -20.421875 C 4.632812 -22.523438 6.375 -24.175781 8.59375 -25.375 C 10.820312 -26.570312 13.328125 -27.171875 16.109375 -27.171875 C 18.878906 -27.171875 21.367188 -26.570312 23.578125 -25.375 C 25.796875 -24.175781 27.539062 -22.523438 28.8125 -20.421875 C 30.082031 -18.328125 30.71875 -15.972656 30.71875 -13.359375 C 30.71875 -10.734375 30.082031 -8.367188 28.8125 -6.265625 C 27.539062 -4.171875 25.796875 -2.523438 23.578125 -1.328125 C 21.367188 -0.140625 18.878906 0.453125 16.109375 0.453125 Z M 16.109375 -4.8125 C 17.679688 -4.8125 19.101562 -5.171875 20.375 -5.890625 C 21.644531 -6.617188 22.640625 -7.628906 23.359375 -8.921875 C 24.085938 -10.222656 24.453125 -11.703125 24.453125 -13.359375 C 24.453125 -15.003906 24.085938 -16.476562 23.359375 -17.78125 C 22.640625 -19.082031 21.644531 -20.09375 20.375 -20.8125 C 19.101562 -21.539062 17.679688 -21.90625 16.109375 -21.90625 C 14.523438 -21.90625 13.097656 -21.539062 11.828125 -20.8125 C 10.554688 -20.09375 9.554688 -19.082031 8.828125 -17.78125 C 8.109375 -16.476562 7.75 -15.003906 7.75 -13.359375 C 7.75 -11.703125 8.109375 -10.222656 8.828125 -8.921875 C 9.554688 -7.628906 10.554688 -6.617188 11.828125 -5.890625 C 13.097656 -5.171875 14.523438 -4.8125 16.109375 -4.8125 Z M 16.109375 -4.8125 "/></g></g></g><g fill="#000000" fill-opacity="1"><g transform="translate(247.980673, 278.53423)"><g><path d="M 20.1875 0 L 15.03125 -7.4375 L 9.34375 -7.4375 L 9.34375 0 L 3.171875 0 L 3.171875 -26.703125 L 14.734375 -26.703125 C 17.097656 -26.703125 19.148438 -26.304688 20.890625 -25.515625 C 22.628906 -24.734375 23.96875 -23.617188 24.90625 -22.171875 C 25.851562 -20.722656 26.328125 -19.003906 26.328125 -17.015625 C 26.328125 -15.035156 25.847656 -13.328125 24.890625 -11.890625 C 23.941406 -10.453125 22.585938 -9.347656 20.828125 -8.578125 L 26.828125 0 Z M 20.0625 -17.015625 C 20.0625 -18.515625 19.578125 -19.664062 18.609375 -20.46875 C 17.648438 -21.269531 16.242188 -21.671875 14.390625 -21.671875 L 9.34375 -21.671875 L 9.34375 -12.359375 L 14.390625 -12.359375 C 16.242188 -12.359375 17.648438 -12.765625 18.609375 -13.578125 C 19.578125 -14.390625 20.0625 -15.535156 20.0625 -17.015625 Z M 20.0625 -17.015625 "/></g></g></g><g fill="#000000" fill-opacity="1"><g transform="translate(277.962295, 278.53423)"><g><path d="M 3.171875 -26.703125 L 9.34375 -26.703125 L 9.34375 0 L 3.171875 0 Z M 3.171875 -26.703125 "/></g></g></g><g fill="#000000" fill-opacity="1"><g transform="translate(292.419409, 278.53423)"><g><path d="M 16.109375 0.453125 C 13.328125 0.453125 10.820312 -0.140625 8.59375 -1.328125 C 6.375 -2.523438 4.632812 -4.171875 3.375 -6.265625 C 2.113281 -8.367188 1.484375 -10.734375 1.484375 -13.359375 C 1.484375 -15.972656 2.113281 -18.328125 3.375 -20.421875 C 4.632812 -22.523438 6.375 -24.175781 8.59375 -25.375 C 10.820312 -26.570312 13.328125 -27.171875 16.109375 -27.171875 C 18.878906 -27.171875 21.367188 -26.570312 23.578125 -25.375 C 25.796875 -24.175781 27.539062 -22.523438 28.8125 -20.421875 C 30.082031 -18.328125 30.71875 -15.972656 30.71875 -13.359375 C 30.71875 -10.734375 30.082031 -8.367188 28.8125 -6.265625 C 27.539062 -4.171875 25.796875 -2.523438 23.578125 -1.328125 C 21.367188 -0.140625 18.878906 0.453125 16.109375 0.453125 Z M 16.109375 -4.8125 C 17.679688 -4.8125 19.101562 -5.171875 20.375 -5.890625 C 21.644531 -6.617188 22.640625 -7.628906 23.359375 -8.921875 C 24.085938 -10.222656 24.453125 -11.703125 24.453125 -13.359375 C 24.453125 -15.003906 24.085938 -16.476562 23.359375 -17.78125 C 22.640625 -19.082031 21.644531 -20.09375 20.375 -20.8125 C 19.101562 -21.539062 17.679688 -21.90625 16.109375 -21.90625 C 14.523438 -21.90625 13.097656 -21.539062 11.828125 -20.8125 C 10.554688 -20.09375 9.554688 -19.082031 8.828125 -17.78125 C 8.109375 -16.476562 7.75 -15.003906 7.75 -13.359375 C 7.75 -11.703125 8.109375 -10.222656 8.828125 -8.921875 C 9.554688 -7.628906 10.554688 -6.617188 11.828125 -5.890625 C 13.097656 -5.171875 14.523438 -4.8125 16.109375 -4.8125 Z M 16.109375 -4.8125 "/></g></g></g><g fill="#000000" fill-opacity="1"><g transform="translate(44.08875, 295.39267)"><g><path d="M 4.265625 0.125 C 3.535156 0.125 2.875 -0.03125 2.28125 -0.34375 C 1.6875 -0.664062 1.222656 -1.101562 0.890625 -1.65625 C 0.554688 -2.21875 0.390625 -2.847656 0.390625 -3.546875 C 0.390625 -4.242188 0.554688 -4.867188 0.890625 -5.421875 C 1.222656 -5.972656 1.6875 -6.40625 2.28125 -6.71875 C 2.875 -7.039062 3.535156 -7.203125 4.265625 -7.203125 C 5.003906 -7.203125 5.664062 -7.039062 6.25 -6.71875 C 6.84375 -6.40625 7.304688 -5.972656 7.640625 -5.421875 C 7.984375 -4.867188 8.15625 -4.242188 8.15625 -3.546875 C 8.15625 -2.847656 7.984375 -2.21875 7.640625 -1.65625 C 7.304688 -1.101562 6.84375 -0.664062 6.25 -0.34375 C 5.664062 -0.03125 5.003906 0.125 4.265625 0.125 Z M 4.265625 -1.28125 C 4.691406 -1.28125 5.070312 -1.375 5.40625 -1.5625 C 5.738281 -1.757812 6 -2.03125 6.1875 -2.375 C 6.382812 -2.71875 6.484375 -3.109375 6.484375 -3.546875 C 6.484375 -3.984375 6.382812 -4.375 6.1875 -4.71875 C 6 -5.0625 5.738281 -5.328125 5.40625 -5.515625 C 5.070312 -5.710938 4.691406 -5.8125 4.265625 -5.8125 C 3.847656 -5.8125 3.46875 -5.710938 3.125 -5.515625 C 2.789062 -5.328125 2.53125 -5.0625 2.34375 -4.71875 C 2.15625 -4.375 2.0625 -3.984375 2.0625 -3.546875 C 2.0625 -3.109375 2.15625 -2.71875 2.34375 -2.375 C 2.53125 -2.03125 2.789062 -1.757812 3.125 -1.5625 C 3.46875 -1.375 3.847656 -1.28125 4.265625 -1.28125 Z M 4.265625 -1.28125 "/></g></g></g><g fill="#000000" fill-opacity="1"><g transform="translate(57.530696, 295.39267)"><g><path d="M 3.90625 -7.09375 C 4.53125 -7.09375 5.070312 -6.984375 5.53125 -6.765625 C 6 -6.554688 6.359375 -6.257812 6.609375 -5.875 C 6.859375 -5.5 6.984375 -5.046875 6.984375 -4.515625 C 6.984375 -3.992188 6.859375 -3.539062 6.609375 -3.15625 C 6.359375 -2.769531 6 -2.472656 5.53125 -2.265625 C 5.070312 -2.054688 4.53125 -1.953125 3.90625 -1.953125 L 2.484375 -1.953125 L 2.484375 0 L 0.84375 0 L 0.84375 -7.09375 Z M 3.8125 -3.296875 C 4.3125 -3.296875 4.6875 -3.398438 4.9375 -3.609375 C 5.195312 -3.816406 5.328125 -4.117188 5.328125 -4.515625 C 5.328125 -4.910156 5.195312 -5.210938 4.9375 -5.421875 C 4.6875 -5.640625 4.3125 -5.75 3.8125 -5.75 L 2.484375 -5.75 L 2.484375 -3.296875 Z M 3.8125 -3.296875 "/></g></g></g><g fill="#000000" fill-opacity="1"><g transform="translate(69.83898, 295.39267)"><g><path d="M 2.3125 -5.75 L 0.046875 -5.75 L 0.046875 -7.09375 L 6.21875 -7.09375 L 6.21875 -5.75 L 3.953125 -5.75 L 3.953125 0 L 2.3125 0 Z M 2.3125 -5.75 "/></g></g></g><g fill="#000000" fill-opacity="1"><g transform="translate(80.993359, 295.39267)"><g><path d="M 0.84375 -7.09375 L 2.484375 -7.09375 L 2.484375 0 L 0.84375 0 Z M 0.84375 -7.09375 "/></g></g></g><g fill="#000000" fill-opacity="1"><g transform="translate(89.212374, 295.39267)"><g><path d="M 7.296875 0 L 7.28125 -4.25 L 5.1875 -0.75 L 4.453125 -0.75 L 2.375 -4.15625 L 2.375 0 L 0.84375 0 L 0.84375 -7.09375 L 2.203125 -7.09375 L 4.84375 -2.6875 L 7.46875 -7.09375 L 8.8125 -7.09375 L 8.828125 0 Z M 7.296875 0 "/></g></g></g><g fill="#000000" fill-opacity="1"><g transform="translate(103.777863, 295.39267)"><g><path d="M 0.84375 -7.09375 L 2.484375 -7.09375 L 2.484375 0 L 0.84375 0 Z M 0.84375 -7.09375 "/></g></g></g><g fill="#000000" fill-opacity="1"><g transform="translate(111.996877, 295.39267)"><g><path d="M 6.578125 -1.34375 L 6.578125 0 L 0.390625 0 L 0.390625 -1.0625 L 4.265625 -5.75 L 0.46875 -5.75 L 0.46875 -7.09375 L 6.421875 -7.09375 L 6.421875 -6.03125 L 2.546875 -1.34375 Z M 6.578125 -1.34375 "/></g></g></g><g fill="#000000" fill-opacity="1"><g transform="translate(123.687728, 295.39267)"><g><path d="M 5.515625 -1.515625 L 2.21875 -1.515625 L 1.59375 0 L -0.09375 0 L 3.0625 -7.09375 L 4.6875 -7.09375 L 7.859375 0 L 6.140625 0 Z M 4.984375 -2.765625 L 3.875 -5.484375 L 2.75 -2.765625 Z M 4.984375 -2.765625 "/></g></g></g><g fill="#000000" fill-opacity="1"><g transform="translate(136.340159, 295.39267)"><g/></g></g><g fill="#000000" fill-opacity="1"><g transform="translate(144.103681, 295.39267)"><g><path d="M 2.3125 -5.75 L 0.046875 -5.75 L 0.046875 -7.09375 L 6.21875 -7.09375 L 6.21875 -5.75 L 3.953125 -5.75 L 3.953125 0 L 2.3125 0 Z M 2.3125 -5.75 "/></g></g></g><g fill="#000000" fill-opacity="1"><g transform="translate(155.258063, 295.39267)"><g><path d="M 3.984375 0.125 C 2.972656 0.125 2.1875 -0.15625 1.625 -0.71875 C 1.0625 -1.28125 0.78125 -2.082031 0.78125 -3.125 L 0.78125 -7.09375 L 2.421875 -7.09375 L 2.421875 -3.171875 C 2.421875 -1.910156 2.945312 -1.28125 4 -1.28125 C 4.507812 -1.28125 4.898438 -1.429688 5.171875 -1.734375 C 5.441406 -2.046875 5.578125 -2.523438 5.578125 -3.171875 L 5.578125 -7.09375 L 7.203125 -7.09375 L 7.203125 -3.125 C 7.203125 -2.082031 6.921875 -1.28125 6.359375 -0.71875 C 5.796875 -0.15625 5.003906 0.125 3.984375 0.125 Z M 3.984375 0.125 "/></g></g></g><g fill="#000000" fill-opacity="1"><g transform="translate(168.133183, 295.39267)"><g/></g></g><g fill="#000000" fill-opacity="1"><g transform="translate(175.896705, 295.39267)"><g><path d="M 3.171875 0.125 C 2.609375 0.125 2.066406 0.0507812 1.546875 -0.09375 C 1.023438 -0.25 0.601562 -0.453125 0.28125 -0.703125 L 0.84375 -1.9375 C 1.144531 -1.707031 1.503906 -1.523438 1.921875 -1.390625 C 2.335938 -1.253906 2.753906 -1.1875 3.171875 -1.1875 C 3.640625 -1.1875 3.984375 -1.253906 4.203125 -1.390625 C 4.429688 -1.535156 4.546875 -1.722656 4.546875 -1.953125 C 4.546875 -2.117188 4.476562 -2.257812 4.34375 -2.375 C 4.21875 -2.488281 4.050781 -2.578125 3.84375 -2.640625 C 3.632812 -2.710938 3.351562 -2.785156 3 -2.859375 C 2.46875 -2.992188 2.03125 -3.125 1.6875 -3.25 C 1.34375 -3.375 1.046875 -3.578125 0.796875 -3.859375 C 0.546875 -4.148438 0.421875 -4.53125 0.421875 -5 C 0.421875 -5.414062 0.53125 -5.789062 0.75 -6.125 C 0.976562 -6.457031 1.316406 -6.71875 1.765625 -6.90625 C 2.210938 -7.101562 2.757812 -7.203125 3.40625 -7.203125 C 3.863281 -7.203125 4.304688 -7.148438 4.734375 -7.046875 C 5.171875 -6.941406 5.550781 -6.785156 5.875 -6.578125 L 5.359375 -5.328125 C 4.710938 -5.703125 4.0625 -5.890625 3.40625 -5.890625 C 2.945312 -5.890625 2.609375 -5.816406 2.390625 -5.671875 C 2.171875 -5.523438 2.0625 -5.328125 2.0625 -5.078125 C 2.0625 -4.835938 2.1875 -4.65625 2.4375 -4.53125 C 2.6875 -4.414062 3.070312 -4.300781 3.59375 -4.1875 C 4.132812 -4.0625 4.578125 -3.929688 4.921875 -3.796875 C 5.265625 -3.671875 5.554688 -3.46875 5.796875 -3.1875 C 6.046875 -2.914062 6.171875 -2.546875 6.171875 -2.078125 C 6.171875 -1.671875 6.054688 -1.300781 5.828125 -0.96875 C 5.609375 -0.632812 5.269531 -0.367188 4.8125 -0.171875 C 4.363281 0.0234375 3.816406 0.125 3.171875 0.125 Z M 3.171875 0.125 "/></g></g></g><g fill="#000000" fill-opacity="1"><g transform="translate(187.253523, 295.39267)"><g><path d="M 2.3125 -5.75 L 0.046875 -5.75 L 0.046875 -7.09375 L 6.21875 -7.09375 L 6.21875 -5.75 L 3.953125 -5.75 L 3.953125 0 L 2.3125 0 Z M 2.3125 -5.75 "/></g></g></g><g fill="#000000" fill-opacity="1"><g transform="translate(198.407899, 295.39267)"><g><path d="M 4.265625 0.125 C 3.535156 0.125 2.875 -0.03125 2.28125 -0.34375 C 1.6875 -0.664062 1.222656 -1.101562 0.890625 -1.65625 C 0.554688 -2.21875 0.390625 -2.847656 0.390625 -3.546875 C 0.390625 -4.242188 0.554688 -4.867188 0.890625 -5.421875 C 1.222656 -5.972656 1.6875 -6.40625 2.28125 -6.71875 C 2.875 -7.039062 3.535156 -7.203125 4.265625 -7.203125 C 5.003906 -7.203125 5.664062 -7.039062 6.25 -6.71875 C 6.84375 -6.40625 7.304688 -5.972656 7.640625 -5.421875 C 7.984375 -4.867188 8.15625 -4.242188 8.15625 -3.546875 C 8.15625 -2.847656 7.984375 -2.21875 7.640625 -1.65625 C 7.304688 -1.101562 6.84375 -0.664062 6.25 -0.34375 C 5.664062 -0.03125 5.003906 0.125 4.265625 0.125 Z M 4.265625 -1.28125 C 4.691406 -1.28125 5.070312 -1.375 5.40625 -1.5625 C 5.738281 -1.757812 6 -2.03125 6.1875 -2.375 C 6.382812 -2.71875 6.484375 -3.109375 6.484375 -3.546875 C 6.484375 -3.984375 6.382812 -4.375 6.1875 -4.71875 C 6 -5.0625 5.738281 -5.328125 5.40625 -5.515625 C 5.070312 -5.710938 4.691406 -5.8125 4.265625 -5.8125 C 3.847656 -5.8125 3.46875 -5.710938 3.125 -5.515625 C 2.789062 -5.328125 2.53125 -5.0625 2.34375 -4.71875 C 2.15625 -4.375 2.0625 -3.984375 2.0625 -3.546875 C 2.0625 -3.109375 2.15625 -2.71875 2.34375 -2.375 C 2.53125 -2.03125 2.789062 -1.757812 3.125 -1.5625 C 3.46875 -1.375 3.847656 -1.28125 4.265625 -1.28125 Z M 4.265625 -1.28125 "/></g></g></g><g fill="#000000" fill-opacity="1"><g transform="translate(211.849843, 295.39267)"><g><path d="M 4.234375 0.125 C 3.515625 0.125 2.859375 -0.03125 2.265625 -0.34375 C 1.679688 -0.65625 1.222656 -1.085938 0.890625 -1.640625 C 0.554688 -2.203125 0.390625 -2.835938 0.390625 -3.546875 C 0.390625 -4.242188 0.554688 -4.867188 0.890625 -5.421875 C 1.222656 -5.984375 1.679688 -6.421875 2.265625 -6.734375 C 2.859375 -7.046875 3.519531 -7.203125 4.25 -7.203125 C 4.851562 -7.203125 5.40625 -7.09375 5.90625 -6.875 C 6.40625 -6.664062 6.820312 -6.359375 7.15625 -5.953125 L 6.109375 -4.984375 C 5.628906 -5.535156 5.035156 -5.8125 4.328125 -5.8125 C 3.890625 -5.8125 3.492188 -5.710938 3.140625 -5.515625 C 2.796875 -5.328125 2.53125 -5.0625 2.34375 -4.71875 C 2.15625 -4.375 2.0625 -3.984375 2.0625 -3.546875 C 2.0625 -3.109375 2.15625 -2.71875 2.34375 -2.375 C 2.53125 -2.03125 2.796875 -1.757812 3.140625 -1.5625 C 3.492188 -1.375 3.890625 -1.28125 4.328125 -1.28125 C 5.035156 -1.28125 5.628906 -1.554688 6.109375 -2.109375 L 7.15625 -1.140625 C 6.820312 -0.734375 6.40625 -0.421875 5.90625 -0.203125 C 5.40625 0.015625 4.847656 0.125 4.234375 0.125 Z M 4.234375 0.125 "/></g></g></g><g fill="#000000" fill-opacity="1"><g transform="translate(224.168255, 295.39267)"><g><path d="M 3.421875 -2.78125 L 2.46875 -1.796875 L 2.46875 0 L 0.84375 0 L 0.84375 -7.09375 L 2.46875 -7.09375 L 2.46875 -3.78125 L 5.609375 -7.09375 L 7.4375 -7.09375 L 4.5 -3.921875 L 7.609375 0 L 5.6875 0 Z M 3.421875 -2.78125 "/></g></g></g><g fill="#000000" fill-opacity="1"><g transform="translate(236.55752, 295.39267)"><g/></g></g><g fill="#000000" fill-opacity="1"><g transform="translate(244.321041, 295.39267)"><g><path d="M 4.25 -2.515625 L 4.25 0 L 2.609375 0 L 2.609375 -2.53125 L -0.140625 -7.09375 L 1.59375 -7.09375 L 3.5 -3.9375 L 5.390625 -7.09375 L 7 -7.09375 Z M 4.25 -2.515625 "/></g></g></g><g fill="#000000" fill-opacity="1"><g transform="translate(256.0625, 295.39267)"><g/></g></g><g fill="#000000" fill-opacity="1"><g transform="translate(263.826034, 295.39267)"><g><path d="M 6.328125 -1.3125 L 6.328125 0 L 0.84375 0 L 0.84375 -7.09375 L 6.203125 -7.09375 L 6.203125 -5.765625 L 2.46875 -5.765625 L 2.46875 -4.234375 L 5.765625 -4.234375 L 5.765625 -2.953125 L 2.46875 -2.953125 L 2.46875 -1.3125 Z M 6.328125 -1.3125 "/></g></g></g><g fill="#000000" fill-opacity="1"><g transform="translate(275.516898, 295.39267)"><g><path d="M 8.5 0.765625 C 8.269531 1.046875 7.988281 1.257812 7.65625 1.40625 C 7.332031 1.550781 6.976562 1.625 6.59375 1.625 C 6.0625 1.625 5.582031 1.507812 5.15625 1.28125 C 4.738281 1.0625 4.253906 0.664062 3.703125 0.09375 C 3.066406 0.0078125 2.492188 -0.191406 1.984375 -0.515625 C 1.484375 -0.847656 1.09375 -1.273438 0.8125 -1.796875 C 0.53125 -2.328125 0.390625 -2.910156 0.390625 -3.546875 C 0.390625 -4.242188 0.554688 -4.867188 0.890625 -5.421875 C 1.222656 -5.972656 1.6875 -6.40625 2.28125 -6.71875 C 2.875 -7.039062 3.535156 -7.203125 4.265625 -7.203125 C 5.003906 -7.203125 5.664062 -7.039062 6.25 -6.71875 C 6.84375 -6.40625 7.304688 -5.972656 7.640625 -5.421875 C 7.984375 -4.867188 8.15625 -4.242188 8.15625 -3.546875 C 8.15625 -2.722656 7.921875 -2 7.453125 -1.375 C 6.992188 -0.757812 6.382812 -0.328125 5.625 -0.078125 C 5.789062 0.0976562 5.953125 0.222656 6.109375 0.296875 C 6.265625 0.378906 6.4375 0.421875 6.625 0.421875 C 7.0625 0.421875 7.445312 0.242188 7.78125 -0.109375 Z M 2.0625 -3.546875 C 2.0625 -3.109375 2.15625 -2.71875 2.34375 -2.375 C 2.53125 -2.03125 2.789062 -1.757812 3.125 -1.5625 C 3.46875 -1.375 3.847656 -1.28125 4.265625 -1.28125 C 4.691406 -1.28125 5.070312 -1.375 5.40625 -1.5625 C 5.738281 -1.757812 6 -2.03125 6.1875 -2.375 C 6.382812 -2.71875 6.484375 -3.109375 6.484375 -3.546875 C 6.484375 -3.984375 6.382812 -4.375 6.1875 -4.71875 C 6 -5.0625 5.738281 -5.328125 5.40625 -5.515625 C 5.070312 -5.710938 4.691406 -5.8125 4.265625 -5.8125 C 3.847656 -5.8125 3.46875 -5.710938 3.125 -5.515625 C 2.789062 -5.328125 2.53125 -5.0625 2.34375 -4.71875 C 2.15625 -4.375 2.0625 -3.984375 2.0625 -3.546875 Z M 2.0625 -3.546875 "/></g></g></g><g fill="#000000" fill-opacity="1"><g transform="translate(288.958842, 295.39267)"><g><path d="M 3.984375 0.125 C 2.972656 0.125 2.1875 -0.15625 1.625 -0.71875 C 1.0625 -1.28125 0.78125 -2.082031 0.78125 -3.125 L 0.78125 -7.09375 L 2.421875 -7.09375 L 2.421875 -3.171875 C 2.421875 -1.910156 2.945312 -1.28125 4 -1.28125 C 4.507812 -1.28125 4.898438 -1.429688 5.171875 -1.734375 C 5.441406 -2.046875 5.578125 -2.523438 5.578125 -3.171875 L 5.578125 -7.09375 L 7.203125 -7.09375 L 7.203125 -3.125 C 7.203125 -2.082031 6.921875 -1.28125 6.359375 -0.71875 C 5.796875 -0.15625 5.003906 0.125 3.984375 0.125 Z M 3.984375 0.125 "/></g></g></g><g fill="#000000" fill-opacity="1"><g transform="translate(301.833961, 295.39267)"><g><path d="M 0.84375 -7.09375 L 2.484375 -7.09375 L 2.484375 0 L 0.84375 0 Z M 0.84375 -7.09375 "/></g></g></g><g fill="#000000" fill-opacity="1"><g transform="translate(310.052989, 295.39267)"><g><path d="M 3.90625 -7.09375 C 4.53125 -7.09375 5.070312 -6.984375 5.53125 -6.765625 C 6 -6.554688 6.359375 -6.257812 6.609375 -5.875 C 6.859375 -5.5 6.984375 -5.046875 6.984375 -4.515625 C 6.984375 -3.992188 6.859375 -3.539062 6.609375 -3.15625 C 6.359375 -2.769531 6 -2.472656 5.53125 -2.265625 C 5.070312 -2.054688 4.53125 -1.953125 3.90625 -1.953125 L 2.484375 -1.953125 L 2.484375 0 L 0.84375 0 L 0.84375 -7.09375 Z M 3.8125 -3.296875 C 4.3125 -3.296875 4.6875 -3.398438 4.9375 -3.609375 C 5.195312 -3.816406 5.328125 -4.117188 5.328125 -4.515625 C 5.328125 -4.910156 5.195312 -5.210938 4.9375 -5.421875 C 4.6875 -5.640625 4.3125 -5.75 3.8125 -5.75 L 2.484375 -5.75 L 2.484375 -3.296875 Z M 3.8125 -3.296875 "/></g></g></g><g fill="#000000" fill-opacity="1"><g transform="translate(322.361284, 295.39267)"><g><path d="M 4.265625 0.125 C 3.535156 0.125 2.875 -0.03125 2.28125 -0.34375 C 1.6875 -0.664062 1.222656 -1.101562 0.890625 -1.65625 C 0.554688 -2.21875 0.390625 -2.847656 0.390625 -3.546875 C 0.390625 -4.242188 0.554688 -4.867188 0.890625 -5.421875 C 1.222656 -5.972656 1.6875 -6.40625 2.28125 -6.71875 C 2.875 -7.039062 3.535156 -7.203125 4.265625 -7.203125 C 5.003906 -7.203125 5.664062 -7.039062 6.25 -6.71875 C 6.84375 -6.40625 7.304688 -5.972656 7.640625 -5.421875 C 7.984375 -4.867188 8.15625 -4.242188 8.15625 -3.546875 C 8.15625 -2.847656 7.984375 -2.21875 7.640625 -1.65625 C 7.304688 -1.101562 6.84375 -0.664062 6.25 -0.34375 C 5.664062 -0.03125 5.003906 0.125 4.265625 0.125 Z M 4.265625 -1.28125 C 4.691406 -1.28125 5.070312 -1.375 5.40625 -1.5625 C 5.738281 -1.757812 6 -2.03125 6.1875 -2.375 C 6.382812 -2.71875 6.484375 -3.109375 6.484375 -3.546875 C 6.484375 -3.984375 6.382812 -4.375 6.1875 -4.71875 C 6 -5.0625 5.738281 -5.328125 5.40625 -5.515625 C 5.070312 -5.710938 4.691406 -5.8125 4.265625 -5.8125 C 3.847656 -5.8125 3.46875 -5.710938 3.125 -5.515625 C 2.789062 -5.328125 2.53125 -5.0625 2.34375 -4.71875 C 2.15625 -4.375 2.0625 -3.984375 2.0625 -3.546875 C 2.0625 -3.109375 2.15625 -2.71875 2.34375 -2.375 C 2.53125 -2.03125 2.789062 -1.757812 3.125 -1.5625 C 3.46875 -1.375 3.847656 -1.28125 4.265625 -1.28125 Z M 4.265625 -1.28125 "/></g></g></g></svg>