<svg xmlns="http://www.w3.org/2000/svg" xmlns:xlink="http://www.w3.org/1999/xlink" width="500" zoomAndPan="magnify" viewBox="0 0 375 374.999991" height="500" preserveAspectRatio="xMidYMid meet" version="1.0"><defs><clipPath id="87f32587b8"><path d="M 43.757812 32 L 329 32 L 329 332 L 43.757812 332 Z M 43.757812 32 " clip-rule="nonzero"/></clipPath><clipPath id="a3d4416727"><path d="M 193 181 L 343.757812 181 L 343.757812 332 L 193 332 Z M 193 181 " clip-rule="nonzero"/></clipPath><clipPath id="5f34c067de"><path d="M 228.472656 214.332031 L 317.445312 214.332031 L 317.445312 303.300781 L 228.472656 303.300781 Z M 228.472656 214.332031 " clip-rule="nonzero"/></clipPath><clipPath id="e2a055bff3"><path d="M 272.957031 214.332031 C 248.390625 214.332031 228.472656 234.246094 228.472656 258.816406 C 228.472656 283.382812 248.390625 303.300781 272.957031 303.300781 C 297.527344 303.300781 317.445312 283.382812 317.445312 258.816406 C 317.445312 234.246094 297.527344 214.332031 272.957031 214.332031 " clip-rule="nonzero"/></clipPath><clipPath id="941d5bd48b"><path d="M 206.429688 192.285156 L 339.179688 192.285156 L 339.179688 325.035156 L 206.429688 325.035156 Z M 206.429688 192.285156 " clip-rule="nonzero"/></clipPath></defs><g clip-path="url(#87f32587b8)"><path fill="#62b334" d="M 190.375 313.921875 L 186.046875 316.089844 L 58.90625 259.53125 L 58.90625 111.015625 L 183.191406 166.304688 C 184.160156 166.734375 185.175781 166.949219 186.234375 166.949219 C 187.292969 166.949219 188.308594 166.734375 189.277344 166.304688 L 313.5625 111.015625 L 313.5625 174.445312 C 313.570312 174.9375 313.621094 175.421875 313.71875 175.898438 C 313.820312 176.378906 313.964844 176.84375 314.15625 177.292969 C 314.34375 177.746094 314.578125 178.171875 314.851562 178.578125 C 315.125 178.984375 315.433594 179.355469 315.78125 179.703125 C 316.128906 180.046875 316.507812 180.351562 316.914062 180.625 C 317.320312 180.894531 317.75 181.121094 318.203125 181.308594 C 318.65625 181.496094 319.121094 181.636719 319.601562 181.730469 C 320.082031 181.824219 320.566406 181.871094 321.054688 181.871094 C 321.542969 181.871094 322.027344 181.824219 322.507812 181.730469 C 322.984375 181.636719 323.453125 181.496094 323.902344 181.308594 C 324.355469 181.121094 324.785156 180.894531 325.191406 180.625 C 325.601562 180.351562 325.976562 180.046875 326.324219 179.703125 C 326.671875 179.355469 326.984375 178.984375 327.257812 178.578125 C 327.53125 178.171875 327.761719 177.746094 327.953125 177.292969 C 328.144531 176.84375 328.289062 176.378906 328.386719 175.898438 C 328.488281 175.421875 328.539062 174.9375 328.542969 174.445312 L 328.542969 99.480469 C 328.542969 98.757812 328.441406 98.046875 328.234375 97.351562 C 328.027344 96.65625 327.730469 96.003906 327.332031 95.398438 C 326.9375 94.789062 326.464844 94.25 325.914062 93.777344 C 325.363281 93.308594 324.757812 92.925781 324.097656 92.632812 L 189.277344 32.660156 C 188.308594 32.230469 187.292969 32.011719 186.234375 32.011719 C 185.175781 32.011719 184.160156 32.230469 183.191406 32.660156 L 48.371094 92.632812 C 47.710938 92.925781 47.105469 93.308594 46.554688 93.777344 C 46 94.25 45.527344 94.789062 45.132812 95.398438 C 44.738281 96.003906 44.441406 96.65625 44.234375 97.351562 C 44.027344 98.046875 43.925781 98.757812 43.925781 99.480469 L 43.925781 264.40625 C 43.925781 265.128906 44.027344 265.839844 44.234375 266.535156 C 44.441406 267.230469 44.738281 267.882812 45.132812 268.488281 C 45.527344 269.097656 46.003906 269.636719 46.554688 270.105469 C 47.105469 270.578125 47.710938 270.960938 48.371094 271.253906 L 183.191406 331.226562 C 184.214844 331.679688 185.285156 331.898438 186.402344 331.871094 C 187.519531 331.847656 188.582031 331.585938 189.582031 331.085938 L 197.070312 327.335938 C 197.515625 327.117188 197.929688 326.859375 198.324219 326.558594 C 198.714844 326.257812 199.074219 325.921875 199.398438 325.550781 C 199.722656 325.175781 200.007812 324.777344 200.253906 324.347656 C 200.5 323.921875 200.703125 323.472656 200.859375 323.003906 C 201.015625 322.535156 201.125 322.054688 201.191406 321.566406 C 201.253906 321.074219 201.265625 320.585938 201.230469 320.089844 C 201.199219 319.597656 201.117188 319.113281 200.984375 318.636719 C 200.855469 318.160156 200.679688 317.703125 200.460938 317.257812 C 200.238281 316.816406 199.976562 316.402344 199.675781 316.011719 C 199.371094 315.621094 199.03125 315.265625 198.660156 314.941406 C 198.285156 314.617188 197.882812 314.335938 197.457031 314.089844 C 197.027344 313.847656 196.578125 313.648438 196.109375 313.492188 C 195.640625 313.339844 195.160156 313.230469 194.667969 313.171875 C 194.179688 313.109375 193.6875 313.097656 193.195312 313.136719 C 192.703125 313.171875 192.21875 313.257812 191.746094 313.390625 C 191.269531 313.523438 190.8125 313.703125 190.371094 313.925781 Z M 186.230469 151.25 L 133.242188 127.675781 L 249.195312 76.097656 C 249.328125 76.039062 249.441406 75.953125 249.570312 75.886719 L 302.609375 99.480469 Z M 186.230469 47.710938 L 231.179688 67.703125 L 115.78125 119.039062 C 115.484375 119.183594 115.199219 119.347656 114.921875 119.53125 L 69.859375 99.480469 Z M 186.230469 47.710938 " fill-opacity="1" fill-rule="nonzero"/></g><g clip-path="url(#a3d4416727)"><path fill="#62b334" d="M 268.625 181.941406 C 267.398438 181.941406 266.171875 181.972656 264.949219 182.035156 C 263.722656 182.09375 262.503906 182.183594 261.28125 182.304688 C 260.0625 182.425781 258.847656 182.574219 257.632812 182.753906 C 256.421875 182.933594 255.214844 183.144531 254.011719 183.382812 C 252.808594 183.621094 251.613281 183.890625 250.425781 184.191406 C 249.234375 184.488281 248.054688 184.816406 246.882812 185.171875 C 245.707031 185.527344 244.542969 185.910156 243.390625 186.324219 C 242.238281 186.738281 241.09375 187.179688 239.960938 187.648438 C 238.828125 188.117188 237.707031 188.617188 236.601562 189.140625 C 235.492188 189.664062 234.398438 190.214844 233.316406 190.792969 C 232.234375 191.375 231.167969 191.976562 230.117188 192.609375 C 229.066406 193.238281 228.03125 193.894531 227.011719 194.578125 C 225.992188 195.257812 224.992188 195.964844 224.003906 196.695312 C 223.019531 197.425781 222.054688 198.179688 221.109375 198.960938 C 220.160156 199.738281 219.230469 200.539062 218.324219 201.363281 C 217.414062 202.1875 216.527344 203.03125 215.660156 203.898438 C 214.792969 204.765625 213.949219 205.65625 213.125 206.566406 C 212.304688 207.472656 211.503906 208.402344 210.726562 209.351562 C 209.949219 210.300781 209.195312 211.265625 208.464844 212.25 C 207.734375 213.238281 207.027344 214.238281 206.347656 215.261719 C 205.664062 216.28125 205.011719 217.316406 204.378906 218.367188 C 203.75 219.421875 203.144531 220.488281 202.566406 221.570312 C 201.988281 222.652344 201.4375 223.746094 200.914062 224.855469 C 200.390625 225.964844 199.894531 227.085938 199.425781 228.21875 C 198.957031 229.355469 198.515625 230.5 198.101562 231.652344 C 197.6875 232.808594 197.304688 233.972656 196.949219 235.148438 C 196.59375 236.320312 196.265625 237.503906 195.96875 238.695312 C 195.671875 239.882812 195.402344 241.082031 195.164062 242.285156 C 194.921875 243.488281 194.714844 244.695312 194.535156 245.910156 C 194.355469 247.121094 194.203125 248.339844 194.085938 249.5625 C 193.964844 250.78125 193.875 252.003906 193.8125 253.230469 C 193.753906 254.457031 193.722656 255.683594 193.722656 256.910156 C 193.722656 258.136719 193.753906 259.363281 193.8125 260.585938 C 193.875 261.8125 193.964844 263.035156 194.085938 264.257812 C 194.203125 265.476562 194.355469 266.695312 194.535156 267.910156 C 194.714844 269.121094 194.921875 270.332031 195.164062 271.535156 C 195.402344 272.738281 195.671875 273.933594 195.96875 275.125 C 196.265625 276.3125 196.59375 277.496094 196.949219 278.671875 C 197.304688 279.84375 197.6875 281.007812 198.101562 282.164062 C 198.515625 283.320312 198.957031 284.464844 199.425781 285.597656 C 199.894531 286.730469 200.390625 287.851562 200.914062 288.960938 C 201.4375 290.070312 201.988281 291.164062 202.566406 292.246094 C 203.144531 293.328125 203.75 294.398438 204.378906 295.449219 C 205.007812 296.5 205.664062 297.539062 206.347656 298.558594 C 207.027344 299.578125 207.734375 300.582031 208.464844 301.566406 C 209.191406 302.550781 209.945312 303.519531 210.726562 304.464844 C 211.503906 305.414062 212.304688 306.34375 213.125 307.253906 C 213.949219 308.160156 214.792969 309.050781 215.660156 309.917969 C 216.527344 310.785156 217.414062 311.632812 218.324219 312.453125 C 219.230469 313.277344 220.160156 314.078125 221.105469 314.859375 C 222.054688 315.636719 223.019531 316.390625 224.003906 317.121094 C 224.988281 317.851562 225.992188 318.558594 227.011719 319.242188 C 228.03125 319.921875 229.066406 320.578125 230.117188 321.210938 C 231.167969 321.839844 232.234375 322.445312 233.316406 323.023438 C 234.398438 323.601562 235.492188 324.152344 236.597656 324.675781 C 237.707031 325.203125 238.828125 325.699219 239.960938 326.167969 C 241.09375 326.636719 242.234375 327.078125 243.390625 327.492188 C 244.542969 327.90625 245.707031 328.289062 246.882812 328.648438 C 248.054688 329.003906 249.234375 329.328125 250.425781 329.628906 C 251.613281 329.925781 252.808594 330.195312 254.011719 330.433594 C 255.214844 330.671875 256.421875 330.882812 257.632812 331.0625 C 258.84375 331.242188 260.0625 331.394531 261.28125 331.511719 C 262.5 331.632812 263.722656 331.722656 264.949219 331.785156 C 266.171875 331.84375 267.398438 331.875 268.625 331.875 C 269.847656 331.875 271.074219 331.84375 272.296875 331.785156 C 273.523438 331.722656 274.746094 331.632812 275.964844 331.515625 C 277.183594 331.394531 278.402344 331.242188 279.613281 331.0625 C 280.824219 330.882812 282.035156 330.671875 283.234375 330.433594 C 284.4375 330.195312 285.632812 329.925781 286.824219 329.628906 C 288.011719 329.328125 289.191406 329.003906 290.367188 328.648438 C 291.539062 328.289062 292.703125 327.90625 293.855469 327.492188 C 295.011719 327.078125 296.152344 326.636719 297.285156 326.167969 C 298.417969 325.699219 299.539062 325.203125 300.648438 324.675781 C 301.753906 324.152344 302.851562 323.601562 303.929688 323.023438 C 305.011719 322.445312 306.078125 321.839844 307.128906 321.210938 C 308.179688 320.578125 309.214844 319.921875 310.234375 319.242188 C 311.253906 318.558594 312.257812 317.851562 313.242188 317.121094 C 314.226562 316.390625 315.191406 315.636719 316.140625 314.859375 C 317.085938 314.078125 318.015625 313.277344 318.921875 312.453125 C 319.832031 311.632812 320.71875 310.785156 321.585938 309.917969 C 322.453125 309.050781 323.296875 308.160156 324.121094 307.253906 C 324.945312 306.34375 325.742188 305.414062 326.523438 304.464844 C 327.300781 303.519531 328.054688 302.550781 328.785156 301.566406 C 329.511719 300.582031 330.21875 299.578125 330.898438 298.558594 C 331.582031 297.539062 332.238281 296.5 332.867188 295.449219 C 333.496094 294.398438 334.101562 293.328125 334.679688 292.246094 C 335.257812 291.164062 335.808594 290.070312 336.332031 288.960938 C 336.855469 287.851562 337.351562 286.730469 337.820312 285.597656 C 338.289062 284.464844 338.730469 283.320312 339.144531 282.164062 C 339.558594 281.007812 339.941406 279.84375 340.296875 278.671875 C 340.652344 277.496094 340.980469 276.3125 341.277344 275.125 C 341.578125 273.933594 341.84375 272.738281 342.085938 271.535156 C 342.324219 270.332031 342.53125 269.121094 342.710938 267.910156 C 342.890625 266.695312 343.042969 265.476562 343.164062 264.257812 C 343.28125 263.035156 343.371094 261.8125 343.433594 260.585938 C 343.492188 259.363281 343.523438 258.136719 343.523438 256.910156 C 343.523438 255.683594 343.492188 254.457031 343.429688 253.230469 C 343.367188 252.007812 343.277344 250.785156 343.15625 249.5625 C 343.035156 248.34375 342.882812 247.125 342.703125 245.914062 C 342.519531 244.699219 342.308594 243.492188 342.070312 242.289062 C 341.832031 241.085938 341.5625 239.890625 341.261719 238.703125 C 340.964844 237.511719 340.636719 236.332031 340.28125 235.15625 C 339.921875 233.984375 339.539062 232.820312 339.125 231.664062 C 338.710938 230.511719 338.269531 229.367188 337.800781 228.234375 C 337.328125 227.101562 336.832031 225.980469 336.308594 224.871094 C 335.785156 223.761719 335.234375 222.667969 334.65625 221.585938 C 334.078125 220.503906 333.472656 219.4375 332.84375 218.386719 C 332.210938 217.335938 331.554688 216.300781 330.875 215.28125 C 330.195312 214.261719 329.488281 213.257812 328.757812 212.273438 C 328.027344 211.289062 327.273438 210.320312 326.496094 209.375 C 325.71875 208.425781 324.917969 207.496094 324.09375 206.589844 C 323.273438 205.679688 322.429688 204.792969 321.5625 203.925781 C 320.695312 203.058594 319.808594 202.210938 318.898438 201.386719 C 317.992188 200.566406 317.0625 199.761719 316.117188 198.984375 C 315.171875 198.207031 314.203125 197.453125 313.21875 196.722656 C 312.234375 195.992188 311.234375 195.285156 310.214844 194.601562 C 309.199219 193.921875 308.164062 193.265625 307.113281 192.632812 C 306.0625 192.003906 304.996094 191.398438 303.914062 190.820312 C 302.835938 190.242188 301.742188 189.6875 300.632812 189.164062 C 299.523438 188.640625 298.40625 188.140625 297.273438 187.671875 C 296.140625 187.203125 295 186.761719 293.84375 186.347656 C 292.691406 185.933594 291.527344 185.546875 290.355469 185.191406 C 289.183594 184.832031 288.003906 184.503906 286.816406 184.207031 C 285.628906 183.90625 284.433594 183.636719 283.230469 183.398438 C 282.027344 183.15625 280.820312 182.945312 279.609375 182.765625 C 278.398438 182.585938 277.183594 182.433594 275.960938 182.3125 C 274.742188 182.191406 273.523438 182.097656 272.296875 182.039062 C 271.074219 181.976562 269.847656 181.945312 268.625 181.941406 Z M 268.625 316.882812 C 266.660156 316.882812 264.703125 316.785156 262.75 316.59375 C 260.796875 316.398438 258.859375 316.113281 256.933594 315.730469 C 255.007812 315.34375 253.109375 314.867188 251.230469 314.296875 C 249.351562 313.726562 247.507812 313.066406 245.695312 312.316406 C 243.878906 311.5625 242.109375 310.726562 240.378906 309.800781 C 238.648438 308.875 236.964844 307.863281 235.335938 306.773438 C 233.703125 305.683594 232.128906 304.515625 230.613281 303.269531 C 229.09375 302.023438 227.640625 300.703125 226.253906 299.316406 C 224.867188 297.925781 223.550781 296.472656 222.304688 294.953125 C 221.0625 293.4375 219.894531 291.859375 218.800781 290.226562 C 217.710938 288.59375 216.703125 286.910156 215.78125 285.179688 C 214.855469 283.449219 214.015625 281.675781 213.265625 279.859375 C 212.515625 278.042969 211.855469 276.199219 211.285156 274.316406 C 210.714844 272.4375 210.238281 270.535156 209.855469 268.609375 C 209.472656 266.683594 209.183594 264.742188 208.992188 262.789062 C 208.800781 260.832031 208.703125 258.871094 208.703125 256.910156 C 208.703125 254.945312 208.800781 252.984375 208.992188 251.03125 C 209.183594 249.074219 209.472656 247.136719 209.855469 245.207031 C 210.238281 243.28125 210.714844 241.378906 211.285156 239.5 C 211.855469 237.621094 212.515625 235.773438 213.265625 233.957031 C 214.015625 232.144531 214.855469 230.371094 215.78125 228.636719 C 216.703125 226.90625 217.710938 225.222656 218.800781 223.589844 C 219.894531 221.957031 221.0625 220.382812 222.304688 218.863281 C 223.550781 217.34375 224.867188 215.890625 226.253906 214.503906 C 227.640625 213.113281 229.09375 211.796875 230.613281 210.550781 C 232.128906 209.304688 233.703125 208.136719 235.335938 207.042969 C 236.964844 205.953125 238.648438 204.945312 240.378906 204.019531 C 242.109375 203.09375 243.878906 202.253906 245.695312 201.5 C 247.507812 200.75 249.351562 200.089844 251.230469 199.519531 C 253.109375 198.949219 255.007812 198.472656 256.933594 198.089844 C 258.859375 197.707031 260.796875 197.417969 262.75 197.226562 C 264.703125 197.03125 266.660156 196.9375 268.625 196.9375 C 270.585938 196.9375 272.542969 197.03125 274.496094 197.226562 C 276.449219 197.417969 278.390625 197.707031 280.3125 198.089844 C 282.238281 198.472656 284.140625 198.949219 286.019531 199.519531 C 287.894531 200.089844 289.742188 200.75 291.554688 201.5 C 293.367188 202.253906 295.140625 203.09375 296.871094 204.019531 C 298.601562 204.945312 300.28125 205.953125 301.914062 207.042969 C 303.546875 208.136719 305.121094 209.304688 306.636719 210.550781 C 308.152344 211.796875 309.605469 213.113281 310.992188 214.503906 C 312.382812 215.890625 313.699219 217.34375 314.941406 218.863281 C 316.1875 220.382812 317.355469 221.957031 318.445312 223.589844 C 319.535156 225.222656 320.542969 226.90625 321.46875 228.636719 C 322.394531 230.371094 323.230469 232.144531 323.980469 233.957031 C 324.734375 235.773438 325.394531 237.621094 325.964844 239.5 C 326.53125 241.378906 327.007812 243.28125 327.390625 245.207031 C 327.773438 247.136719 328.0625 249.074219 328.253906 251.03125 C 328.449219 252.984375 328.542969 254.945312 328.542969 256.910156 C 328.542969 258.871094 328.441406 260.832031 328.25 262.785156 C 328.054688 264.738281 327.765625 266.679688 327.378906 268.605469 C 326.996094 270.53125 326.519531 272.429688 325.949219 274.308594 C 325.378906 276.1875 324.714844 278.035156 323.964844 279.847656 C 323.210938 281.664062 322.375 283.433594 321.449219 285.164062 C 320.523438 286.898438 319.515625 288.578125 318.425781 290.210938 C 317.332031 291.84375 316.167969 293.417969 314.921875 294.9375 C 313.675781 296.453125 312.359375 297.90625 310.972656 299.296875 C 309.585938 300.683594 308.132812 302 306.617188 303.246094 C 305.101562 304.492188 303.527344 305.660156 301.898438 306.753906 C 300.265625 307.84375 298.585938 308.851562 296.855469 309.78125 C 295.125 310.707031 293.355469 311.546875 291.542969 312.296875 C 289.730469 313.050781 287.886719 313.710938 286.011719 314.285156 C 284.132812 314.855469 282.234375 315.332031 280.308594 315.71875 C 278.386719 316.101562 276.445312 316.390625 274.496094 316.585938 C 272.542969 316.78125 270.585938 316.878906 268.625 316.882812 Z M 268.625 316.882812 " fill-opacity="1" fill-rule="nonzero"/></g><path fill="#62b334" d="M 293.289062 236.617188 L 261.132812 268.796875 L 247.703125 255.355469 C 247.359375 255.003906 246.980469 254.683594 246.570312 254.40625 C 246.164062 254.125 245.730469 253.890625 245.273438 253.695312 C 244.816406 253.503906 244.347656 253.355469 243.863281 253.253906 C 243.375 253.15625 242.886719 253.101562 242.390625 253.101562 C 241.894531 253.097656 241.40625 253.144531 240.917969 253.238281 C 240.433594 253.332031 239.960938 253.472656 239.5 253.664062 C 239.042969 253.851562 238.609375 254.082031 238.195312 254.359375 C 237.785156 254.632812 237.402344 254.945312 237.050781 255.296875 C 236.703125 255.644531 236.390625 256.027344 236.113281 256.441406 C 235.839844 256.851562 235.609375 257.289062 235.421875 257.746094 C 235.230469 258.207031 235.089844 258.679688 234.996094 259.164062 C 234.902344 259.652344 234.855469 260.144531 234.859375 260.640625 C 234.863281 261.136719 234.914062 261.625 235.011719 262.113281 C 235.113281 262.597656 235.261719 263.066406 235.453125 263.523438 C 235.648438 263.980469 235.882812 264.414062 236.164062 264.824219 C 236.441406 265.234375 236.757812 265.609375 237.113281 265.957031 L 255.839844 284.699219 C 256.1875 285.046875 256.566406 285.359375 256.972656 285.632812 C 257.382812 285.90625 257.8125 286.136719 258.269531 286.324219 C 258.722656 286.511719 259.191406 286.65625 259.671875 286.75 C 260.15625 286.847656 260.640625 286.894531 261.132812 286.894531 C 261.625 286.894531 262.113281 286.847656 262.59375 286.75 C 263.078125 286.65625 263.546875 286.511719 264 286.324219 C 264.453125 286.136719 264.886719 285.90625 265.292969 285.632812 C 265.703125 285.359375 266.082031 285.046875 266.429688 284.699219 L 303.878906 247.214844 C 304.21875 246.867188 304.523438 246.488281 304.792969 246.078125 C 305.058594 245.671875 305.285156 245.238281 305.464844 244.785156 C 305.648438 244.332031 305.785156 243.867188 305.878906 243.386719 C 305.96875 242.90625 306.015625 242.421875 306.011719 241.933594 C 306.007812 241.445312 305.960938 240.960938 305.863281 240.484375 C 305.765625 240.003906 305.621094 239.539062 305.433594 239.089844 C 305.246094 238.636719 305.015625 238.210938 304.742188 237.804688 C 304.472656 237.398438 304.164062 237.023438 303.820312 236.675781 C 303.472656 236.332031 303.097656 236.023438 302.691406 235.75 C 302.289062 235.480469 301.859375 235.25 301.410156 235.058594 C 300.957031 234.871094 300.492188 234.730469 300.015625 234.632812 C 299.539062 234.535156 299.054688 234.484375 298.566406 234.480469 C 298.078125 234.480469 297.59375 234.523438 297.113281 234.613281 C 296.636719 234.707031 296.167969 234.84375 295.714844 235.027344 C 295.265625 235.210938 294.832031 235.4375 294.425781 235.703125 C 294.015625 235.96875 293.636719 236.273438 293.289062 236.617188 Z M 293.289062 236.617188 " fill-opacity="1" fill-rule="nonzero"/><g clip-path="url(#5f34c067de)"><g clip-path="url(#e2a055bff3)"><path fill="#ffffff" d="M 228.472656 214.332031 L 317.445312 214.332031 L 317.445312 303.300781 L 228.472656 303.300781 Z M 228.472656 214.332031 " fill-opacity="1" fill-rule="nonzero"/></g></g><g clip-path="url(#941d5bd48b)"><path fill="#62b334" d="M 272.804688 325.035156 C 309.460938 325.035156 339.179688 295.320312 339.179688 258.660156 C 339.179688 222.003906 309.460938 192.285156 272.804688 192.285156 C 236.144531 192.285156 206.429688 222.003906 206.429688 258.660156 C 206.429688 295.320312 236.144531 325.035156 272.804688 325.035156 Z M 260.582031 225.117188 L 285.085938 225.117188 C 290.167969 225.117188 294.273438 229.21875 294.273438 234.304688 L 294.273438 283.3125 C 294.273438 288.398438 290.167969 292.503906 285.085938 292.503906 L 260.582031 292.503906 C 255.496094 292.503906 251.390625 288.398438 251.390625 283.3125 L 251.390625 234.304688 C 251.390625 229.21875 255.496094 225.117188 260.582031 225.117188 Z M 257.519531 277.1875 L 288.148438 277.1875 L 288.148438 234.304688 L 257.519531 234.304688 Z M 266.707031 286.375 L 278.960938 286.375 L 278.960938 283.3125 L 266.707031 283.3125 Z M 266.707031 286.375 " fill-opacity="1" fill-rule="evenodd"/></g></svg>