<svg xmlns="http://www.w3.org/2000/svg" xmlns:xlink="http://www.w3.org/1999/xlink" width="500" zoomAndPan="magnify" viewBox="0 0 375 374.999991" height="500" preserveAspectRatio="xMidYMid meet" version="1.0"><defs><g/></defs><g fill="#000000" fill-opacity="1"><g transform="translate(53.2596, 201.022756)"><g><path d="M 3.015625 -25.484375 L 8.921875 -25.484375 L 8.921875 0 L 3.015625 0 Z M 3.015625 -25.484375 "/></g></g></g><g fill="#000000" fill-opacity="1"><g transform="translate(67.054607, 201.022756)"><g><path d="M 26.390625 -25.484375 L 26.390625 0 L 21.546875 0 L 8.84375 -15.46875 L 8.84375 0 L 3.015625 0 L 3.015625 -25.484375 L 7.90625 -25.484375 L 20.5625 -10.015625 L 20.5625 -25.484375 Z M 26.390625 -25.484375 "/></g></g></g><g fill="#000000" fill-opacity="1"><g transform="translate(98.320088, 201.022756)"><g><path d="M 27.515625 -25.484375 L 16.484375 0 L 10.671875 0 L -0.328125 -25.484375 L 6.046875 -25.484375 L 13.796875 -7.28125 L 21.65625 -25.484375 Z M 27.515625 -25.484375 "/></g></g></g><g fill="#000000" fill-opacity="1"><g transform="translate(127.32897, 201.022756)"><g><path d="M 22.75 -4.734375 L 22.75 0 L 3.015625 0 L 3.015625 -25.484375 L 22.28125 -25.484375 L 22.28125 -20.75 L 8.890625 -20.75 L 8.890625 -15.21875 L 20.71875 -15.21875 L 20.71875 -10.625 L 8.890625 -10.625 L 8.890625 -4.734375 Z M 22.75 -4.734375 "/></g></g></g><g fill="#000000" fill-opacity="1"><g transform="translate(153.60809, 201.022756)"><g><path d="M 26.390625 -25.484375 L 26.390625 0 L 21.546875 0 L 8.84375 -15.46875 L 8.84375 0 L 3.015625 0 L 3.015625 -25.484375 L 7.90625 -25.484375 L 20.5625 -10.015625 L 20.5625 -25.484375 Z M 26.390625 -25.484375 "/></g></g></g><g fill="#000000" fill-opacity="1"><g transform="translate(184.873567, 201.022756)"><g><path d="M 8.296875 -20.671875 L 0.140625 -20.671875 L 0.140625 -25.484375 L 22.359375 -25.484375 L 22.359375 -20.671875 L 14.203125 -20.671875 L 14.203125 0 L 8.296875 0 Z M 8.296875 -20.671875 "/></g></g></g><g fill="#000000" fill-opacity="1"><g transform="translate(209.223649, 201.022756)"><g><path d="M 15.359375 0.4375 C 12.710938 0.4375 10.328125 -0.128906 8.203125 -1.265625 C 6.085938 -2.410156 4.425781 -3.984375 3.21875 -5.984375 C 2.019531 -7.992188 1.421875 -10.25 1.421875 -12.75 C 1.421875 -15.238281 2.019531 -17.484375 3.21875 -19.484375 C 4.425781 -21.492188 6.085938 -23.066406 8.203125 -24.203125 C 10.328125 -25.347656 12.710938 -25.921875 15.359375 -25.921875 C 18.003906 -25.921875 20.382812 -25.347656 22.5 -24.203125 C 24.613281 -23.066406 26.273438 -21.492188 27.484375 -19.484375 C 28.703125 -17.484375 29.3125 -15.238281 29.3125 -12.75 C 29.3125 -10.25 28.703125 -7.992188 27.484375 -5.984375 C 26.273438 -3.984375 24.613281 -2.410156 22.5 -1.265625 C 20.382812 -0.128906 18.003906 0.4375 15.359375 0.4375 Z M 15.359375 -4.59375 C 16.867188 -4.59375 18.226562 -4.9375 19.4375 -5.625 C 20.65625 -6.3125 21.609375 -7.273438 22.296875 -8.515625 C 22.992188 -9.753906 23.34375 -11.164062 23.34375 -12.75 C 23.34375 -14.320312 22.992188 -15.726562 22.296875 -16.96875 C 21.609375 -18.207031 20.65625 -19.171875 19.4375 -19.859375 C 18.226562 -20.546875 16.867188 -20.890625 15.359375 -20.890625 C 13.859375 -20.890625 12.5 -20.546875 11.28125 -19.859375 C 10.070312 -19.171875 9.117188 -18.207031 8.421875 -16.96875 C 7.734375 -15.726562 7.390625 -14.320312 7.390625 -12.75 C 7.390625 -11.164062 7.734375 -9.753906 8.421875 -8.515625 C 9.117188 -7.273438 10.070312 -6.3125 11.28125 -5.625 C 12.5 -4.9375 13.859375 -4.59375 15.359375 -4.59375 Z M 15.359375 -4.59375 "/></g></g></g><g fill="#000000" fill-opacity="1"><g transform="translate(241.799412, 201.022756)"><g><path d="M 19.265625 0 L 14.34375 -7.09375 L 8.921875 -7.09375 L 8.921875 0 L 3.015625 0 L 3.015625 -25.484375 L 14.046875 -25.484375 C 16.304688 -25.484375 18.265625 -25.109375 19.921875 -24.359375 C 21.585938 -23.609375 22.867188 -22.539062 23.765625 -21.15625 C 24.671875 -19.769531 25.125 -18.128906 25.125 -16.234375 C 25.125 -14.335938 24.664062 -12.703125 23.75 -11.328125 C 22.84375 -9.960938 21.550781 -8.914062 19.875 -8.1875 L 25.59375 0 Z M 19.15625 -16.234375 C 19.15625 -17.671875 18.691406 -18.769531 17.765625 -19.53125 C 16.847656 -20.289062 15.5 -20.671875 13.71875 -20.671875 L 8.921875 -20.671875 L 8.921875 -11.796875 L 13.71875 -11.796875 C 15.5 -11.796875 16.847656 -12.179688 17.765625 -12.953125 C 18.691406 -13.734375 19.15625 -14.828125 19.15625 -16.234375 Z M 19.15625 -16.234375 "/></g></g></g><g fill="#000000" fill-opacity="1"><g transform="translate(270.407929, 201.022756)"><g><path d="M 3.015625 -25.484375 L 8.921875 -25.484375 L 8.921875 0 L 3.015625 0 Z M 3.015625 -25.484375 "/></g></g></g><g fill="#000000" fill-opacity="1"><g transform="translate(284.202933, 201.022756)"><g><path d="M 15.359375 0.4375 C 12.710938 0.4375 10.328125 -0.128906 8.203125 -1.265625 C 6.085938 -2.410156 4.425781 -3.984375 3.21875 -5.984375 C 2.019531 -7.992188 1.421875 -10.25 1.421875 -12.75 C 1.421875 -15.238281 2.019531 -17.484375 3.21875 -19.484375 C 4.425781 -21.492188 6.085938 -23.066406 8.203125 -24.203125 C 10.328125 -25.347656 12.710938 -25.921875 15.359375 -25.921875 C 18.003906 -25.921875 20.382812 -25.347656 22.5 -24.203125 C 24.613281 -23.066406 26.273438 -21.492188 27.484375 -19.484375 C 28.703125 -17.484375 29.3125 -15.238281 29.3125 -12.75 C 29.3125 -10.25 28.703125 -7.992188 27.484375 -5.984375 C 26.273438 -3.984375 24.613281 -2.410156 22.5 -1.265625 C 20.382812 -0.128906 18.003906 0.4375 15.359375 0.4375 Z M 15.359375 -4.59375 C 16.867188 -4.59375 18.226562 -4.9375 19.4375 -5.625 C 20.65625 -6.3125 21.609375 -7.273438 22.296875 -8.515625 C 22.992188 -9.753906 23.34375 -11.164062 23.34375 -12.75 C 23.34375 -14.320312 22.992188 -15.726562 22.296875 -16.96875 C 21.609375 -18.207031 20.65625 -19.171875 19.4375 -19.859375 C 18.226562 -20.546875 16.867188 -20.890625 15.359375 -20.890625 C 13.859375 -20.890625 12.5 -20.546875 11.28125 -19.859375 C 10.070312 -19.171875 9.117188 -18.207031 8.421875 -16.96875 C 7.734375 -15.726562 7.390625 -14.320312 7.390625 -12.75 C 7.390625 -11.164062 7.734375 -9.753906 8.421875 -8.515625 C 9.117188 -7.273438 10.070312 -6.3125 11.28125 -5.625 C 12.5 -4.9375 13.859375 -4.59375 15.359375 -4.59375 Z M 15.359375 -4.59375 "/></g></g></g><g fill="#000000" fill-opacity="1"><g transform="translate(47.245376, 217.109128)"><g><path d="M 4.078125 0.109375 C 3.367188 0.109375 2.734375 -0.0390625 2.171875 -0.34375 C 1.609375 -0.644531 1.164062 -1.0625 0.84375 -1.59375 C 0.53125 -2.125 0.375 -2.71875 0.375 -3.375 C 0.375 -4.039062 0.53125 -4.640625 0.84375 -5.171875 C 1.164062 -5.703125 1.609375 -6.117188 2.171875 -6.421875 C 2.734375 -6.722656 3.367188 -6.875 4.078125 -6.875 C 4.773438 -6.875 5.40625 -6.722656 5.96875 -6.421875 C 6.53125 -6.117188 6.96875 -5.703125 7.28125 -5.171875 C 7.601562 -4.640625 7.765625 -4.039062 7.765625 -3.375 C 7.765625 -2.71875 7.601562 -2.125 7.28125 -1.59375 C 6.96875 -1.0625 6.53125 -0.644531 5.96875 -0.34375 C 5.40625 -0.0390625 4.773438 0.109375 4.078125 0.109375 Z M 4.078125 -1.21875 C 4.472656 -1.21875 4.832031 -1.304688 5.15625 -1.484375 C 5.476562 -1.671875 5.726562 -1.925781 5.90625 -2.25 C 6.09375 -2.582031 6.1875 -2.957031 6.1875 -3.375 C 6.1875 -3.789062 6.09375 -4.164062 5.90625 -4.5 C 5.726562 -4.832031 5.476562 -5.085938 5.15625 -5.265625 C 4.832031 -5.453125 4.472656 -5.546875 4.078125 -5.546875 C 3.671875 -5.546875 3.304688 -5.453125 2.984375 -5.265625 C 2.671875 -5.085938 2.421875 -4.832031 2.234375 -4.5 C 2.046875 -4.164062 1.953125 -3.789062 1.953125 -3.375 C 1.953125 -2.957031 2.046875 -2.582031 2.234375 -2.25 C 2.421875 -1.925781 2.671875 -1.671875 2.984375 -1.484375 C 3.304688 -1.304688 3.671875 -1.21875 4.078125 -1.21875 Z M 4.078125 -1.21875 "/></g></g></g><g fill="#000000" fill-opacity="1"><g transform="translate(60.071706, 217.109128)"><g><path d="M 3.734375 -6.765625 C 4.328125 -6.765625 4.84375 -6.660156 5.28125 -6.453125 C 5.726562 -6.253906 6.066406 -5.972656 6.296875 -5.609375 C 6.535156 -5.242188 6.65625 -4.8125 6.65625 -4.3125 C 6.65625 -3.8125 6.535156 -3.375 6.296875 -3 C 6.066406 -2.632812 5.726562 -2.351562 5.28125 -2.15625 C 4.84375 -1.957031 4.328125 -1.859375 3.734375 -1.859375 L 2.359375 -1.859375 L 2.359375 0 L 0.796875 0 L 0.796875 -6.765625 Z M 3.640625 -3.140625 C 4.109375 -3.140625 4.460938 -3.238281 4.703125 -3.4375 C 4.953125 -3.644531 5.078125 -3.9375 5.078125 -4.3125 C 5.078125 -4.6875 4.953125 -4.972656 4.703125 -5.171875 C 4.460938 -5.378906 4.109375 -5.484375 3.640625 -5.484375 L 2.359375 -5.484375 L 2.359375 -3.140625 Z M 3.640625 -3.140625 "/></g></g></g><g fill="#000000" fill-opacity="1"><g transform="translate(71.816294, 217.109128)"><g><path d="M 2.203125 -5.484375 L 0.03125 -5.484375 L 0.03125 -6.765625 L 5.921875 -6.765625 L 5.921875 -5.484375 L 3.765625 -5.484375 L 3.765625 0 L 2.203125 0 Z M 2.203125 -5.484375 "/></g></g></g><g fill="#000000" fill-opacity="1"><g transform="translate(82.459824, 217.109128)"><g><path d="M 0.796875 -6.765625 L 2.359375 -6.765625 L 2.359375 0 L 0.796875 0 Z M 0.796875 -6.765625 "/></g></g></g><g fill="#000000" fill-opacity="1"><g transform="translate(90.302423, 217.109128)"><g><path d="M 6.953125 0 L 6.9375 -4.0625 L 4.953125 -0.71875 L 4.25 -0.71875 L 2.265625 -3.96875 L 2.265625 0 L 0.796875 0 L 0.796875 -6.765625 L 2.09375 -6.765625 L 4.625 -2.5625 L 7.109375 -6.765625 L 8.40625 -6.765625 L 8.421875 0 Z M 6.953125 0 "/></g></g></g><g fill="#000000" fill-opacity="1"><g transform="translate(104.20084, 217.109128)"><g><path d="M 0.796875 -6.765625 L 2.359375 -6.765625 L 2.359375 0 L 0.796875 0 Z M 0.796875 -6.765625 "/></g></g></g><g fill="#000000" fill-opacity="1"><g transform="translate(112.04344, 217.109128)"><g><path d="M 6.28125 -1.28125 L 6.28125 0 L 0.359375 0 L 0.359375 -1.015625 L 4.078125 -5.484375 L 0.4375 -5.484375 L 0.4375 -6.765625 L 6.125 -6.765625 L 6.125 -5.75 L 2.4375 -1.28125 Z M 6.28125 -1.28125 "/></g></g></g><g fill="#000000" fill-opacity="1"><g transform="translate(123.198872, 217.109128)"><g><path d="M 5.25 -1.453125 L 2.109375 -1.453125 L 1.515625 0 L -0.09375 0 L 2.921875 -6.765625 L 4.46875 -6.765625 L 7.5 0 L 5.859375 0 Z M 4.765625 -2.640625 L 3.6875 -5.21875 L 2.609375 -2.640625 Z M 4.765625 -2.640625 "/></g></g></g><g fill="#000000" fill-opacity="1"><g transform="translate(135.271846, 217.109128)"><g/></g></g><g fill="#000000" fill-opacity="1"><g transform="translate(142.679813, 217.109128)"><g><path d="M 2.203125 -5.484375 L 0.03125 -5.484375 L 0.03125 -6.765625 L 5.921875 -6.765625 L 5.921875 -5.484375 L 3.765625 -5.484375 L 3.765625 0 L 2.203125 0 Z M 2.203125 -5.484375 "/></g></g></g><g fill="#000000" fill-opacity="1"><g transform="translate(153.323346, 217.109128)"><g><path d="M 3.796875 0.109375 C 2.835938 0.109375 2.085938 -0.15625 1.546875 -0.6875 C 1.015625 -1.21875 0.75 -1.976562 0.75 -2.96875 L 0.75 -6.765625 L 2.3125 -6.765625 L 2.3125 -3.03125 C 2.3125 -1.820312 2.8125 -1.21875 3.8125 -1.21875 C 4.300781 -1.21875 4.675781 -1.363281 4.9375 -1.65625 C 5.195312 -1.945312 5.328125 -2.40625 5.328125 -3.03125 L 5.328125 -6.765625 L 6.859375 -6.765625 L 6.859375 -2.96875 C 6.859375 -1.976562 6.585938 -1.21875 6.046875 -0.6875 C 5.515625 -0.15625 4.765625 0.109375 3.796875 0.109375 Z M 3.796875 0.109375 "/></g></g></g><g fill="#000000" fill-opacity="1"><g transform="translate(165.60881, 217.109128)"><g/></g></g><g fill="#000000" fill-opacity="1"><g transform="translate(173.016777, 217.109128)"><g><path d="M 3.015625 0.109375 C 2.484375 0.109375 1.96875 0.0390625 1.46875 -0.09375 C 0.96875 -0.238281 0.566406 -0.429688 0.265625 -0.671875 L 0.796875 -1.84375 C 1.085938 -1.632812 1.429688 -1.460938 1.828125 -1.328125 C 2.234375 -1.203125 2.632812 -1.140625 3.03125 -1.140625 C 3.476562 -1.140625 3.804688 -1.203125 4.015625 -1.328125 C 4.222656 -1.460938 4.328125 -1.640625 4.328125 -1.859375 C 4.328125 -2.023438 4.265625 -2.160156 4.140625 -2.265625 C 4.015625 -2.367188 3.851562 -2.453125 3.65625 -2.515625 C 3.46875 -2.578125 3.207031 -2.648438 2.875 -2.734375 C 2.351562 -2.859375 1.925781 -2.976562 1.59375 -3.09375 C 1.269531 -3.21875 0.988281 -3.414062 0.75 -3.6875 C 0.519531 -3.957031 0.40625 -4.316406 0.40625 -4.765625 C 0.40625 -5.160156 0.507812 -5.515625 0.71875 -5.828125 C 0.9375 -6.148438 1.257812 -6.40625 1.6875 -6.59375 C 2.113281 -6.78125 2.632812 -6.875 3.25 -6.875 C 3.6875 -6.875 4.109375 -6.820312 4.515625 -6.71875 C 4.929688 -6.613281 5.289062 -6.46875 5.59375 -6.28125 L 5.125 -5.09375 C 4.5 -5.445312 3.875 -5.625 3.25 -5.625 C 2.8125 -5.625 2.484375 -5.550781 2.265625 -5.40625 C 2.054688 -5.257812 1.953125 -5.070312 1.953125 -4.84375 C 1.953125 -4.613281 2.070312 -4.441406 2.3125 -4.328125 C 2.5625 -4.210938 2.929688 -4.101562 3.421875 -4 C 3.941406 -3.875 4.363281 -3.75 4.6875 -3.625 C 5.019531 -3.507812 5.300781 -3.316406 5.53125 -3.046875 C 5.769531 -2.785156 5.890625 -2.429688 5.890625 -1.984375 C 5.890625 -1.597656 5.78125 -1.242188 5.5625 -0.921875 C 5.351562 -0.597656 5.03125 -0.34375 4.59375 -0.15625 C 4.164062 0.0195312 3.640625 0.109375 3.015625 0.109375 Z M 3.015625 0.109375 "/></g></g></g><g fill="#000000" fill-opacity="1"><g transform="translate(183.853475, 217.109128)"><g><path d="M 2.203125 -5.484375 L 0.03125 -5.484375 L 0.03125 -6.765625 L 5.921875 -6.765625 L 5.921875 -5.484375 L 3.765625 -5.484375 L 3.765625 0 L 2.203125 0 Z M 2.203125 -5.484375 "/></g></g></g><g fill="#000000" fill-opacity="1"><g transform="translate(194.497001, 217.109128)"><g><path d="M 4.078125 0.109375 C 3.367188 0.109375 2.734375 -0.0390625 2.171875 -0.34375 C 1.609375 -0.644531 1.164062 -1.0625 0.84375 -1.59375 C 0.53125 -2.125 0.375 -2.71875 0.375 -3.375 C 0.375 -4.039062 0.53125 -4.640625 0.84375 -5.171875 C 1.164062 -5.703125 1.609375 -6.117188 2.171875 -6.421875 C 2.734375 -6.722656 3.367188 -6.875 4.078125 -6.875 C 4.773438 -6.875 5.40625 -6.722656 5.96875 -6.421875 C 6.53125 -6.117188 6.96875 -5.703125 7.28125 -5.171875 C 7.601562 -4.640625 7.765625 -4.039062 7.765625 -3.375 C 7.765625 -2.71875 7.601562 -2.125 7.28125 -1.59375 C 6.96875 -1.0625 6.53125 -0.644531 5.96875 -0.34375 C 5.40625 -0.0390625 4.773438 0.109375 4.078125 0.109375 Z M 4.078125 -1.21875 C 4.472656 -1.21875 4.832031 -1.304688 5.15625 -1.484375 C 5.476562 -1.671875 5.726562 -1.925781 5.90625 -2.25 C 6.09375 -2.582031 6.1875 -2.957031 6.1875 -3.375 C 6.1875 -3.789062 6.09375 -4.164062 5.90625 -4.5 C 5.726562 -4.832031 5.476562 -5.085938 5.15625 -5.265625 C 4.832031 -5.453125 4.472656 -5.546875 4.078125 -5.546875 C 3.671875 -5.546875 3.304688 -5.453125 2.984375 -5.265625 C 2.671875 -5.085938 2.421875 -4.832031 2.234375 -4.5 C 2.046875 -4.164062 1.953125 -3.789062 1.953125 -3.375 C 1.953125 -2.957031 2.046875 -2.582031 2.234375 -2.25 C 2.421875 -1.925781 2.671875 -1.671875 2.984375 -1.484375 C 3.304688 -1.304688 3.671875 -1.21875 4.078125 -1.21875 Z M 4.078125 -1.21875 "/></g></g></g><g fill="#000000" fill-opacity="1"><g transform="translate(207.32333, 217.109128)"><g><path d="M 4.03125 0.109375 C 3.34375 0.109375 2.71875 -0.0351562 2.15625 -0.328125 C 1.601562 -0.628906 1.164062 -1.046875 0.84375 -1.578125 C 0.53125 -2.109375 0.375 -2.707031 0.375 -3.375 C 0.375 -4.050781 0.53125 -4.65625 0.84375 -5.1875 C 1.164062 -5.71875 1.601562 -6.128906 2.15625 -6.421875 C 2.71875 -6.722656 3.347656 -6.875 4.046875 -6.875 C 4.628906 -6.875 5.15625 -6.769531 5.625 -6.5625 C 6.101562 -6.351562 6.503906 -6.054688 6.828125 -5.671875 L 5.828125 -4.75 C 5.367188 -5.28125 4.800781 -5.546875 4.125 -5.546875 C 3.707031 -5.546875 3.332031 -5.453125 3 -5.265625 C 2.675781 -5.085938 2.421875 -4.832031 2.234375 -4.5 C 2.046875 -4.164062 1.953125 -3.789062 1.953125 -3.375 C 1.953125 -2.957031 2.046875 -2.582031 2.234375 -2.25 C 2.421875 -1.925781 2.675781 -1.671875 3 -1.484375 C 3.332031 -1.304688 3.707031 -1.21875 4.125 -1.21875 C 4.800781 -1.21875 5.367188 -1.484375 5.828125 -2.015625 L 6.828125 -1.09375 C 6.503906 -0.695312 6.101562 -0.394531 5.625 -0.1875 C 5.15625 0.0078125 4.625 0.109375 4.03125 0.109375 Z M 4.03125 0.109375 "/></g></g></g><g fill="#000000" fill-opacity="1"><g transform="translate(219.077582, 217.109128)"><g><path d="M 3.265625 -2.65625 L 2.359375 -1.703125 L 2.359375 0 L 0.796875 0 L 0.796875 -6.765625 L 2.359375 -6.765625 L 2.359375 -3.609375 L 5.34375 -6.765625 L 7.09375 -6.765625 L 4.28125 -3.75 L 7.25 0 L 5.421875 0 Z M 3.265625 -2.65625 "/></g></g></g><g fill="#000000" fill-opacity="1"><g transform="translate(230.899442, 217.109128)"><g/></g></g><g fill="#000000" fill-opacity="1"><g transform="translate(238.307409, 217.109128)"><g><path d="M 4.046875 -2.390625 L 4.046875 0 L 2.484375 0 L 2.484375 -2.40625 L -0.140625 -6.765625 L 1.53125 -6.765625 L 3.328125 -3.75 L 5.140625 -6.765625 L 6.671875 -6.765625 Z M 4.046875 -2.390625 "/></g></g></g><g fill="#000000" fill-opacity="1"><g transform="translate(249.511131, 217.109128)"><g/></g></g><g fill="#000000" fill-opacity="1"><g transform="translate(256.919111, 217.109128)"><g><path d="M 6.03125 -1.25 L 6.03125 0 L 0.796875 0 L 0.796875 -6.765625 L 5.90625 -6.765625 L 5.90625 -5.5 L 2.359375 -5.5 L 2.359375 -4.03125 L 5.5 -4.03125 L 5.5 -2.8125 L 2.359375 -2.8125 L 2.359375 -1.25 Z M 6.03125 -1.25 "/></g></g></g><g fill="#000000" fill-opacity="1"><g transform="translate(268.074555, 217.109128)"><g><path d="M 8.109375 0.71875 C 7.890625 0.988281 7.625 1.191406 7.3125 1.328125 C 7 1.472656 6.65625 1.546875 6.28125 1.546875 C 5.78125 1.546875 5.328125 1.4375 4.921875 1.21875 C 4.515625 1.007812 4.050781 0.632812 3.53125 0.09375 C 2.914062 0.0078125 2.367188 -0.1875 1.890625 -0.5 C 1.410156 -0.8125 1.035156 -1.21875 0.765625 -1.71875 C 0.503906 -2.21875 0.375 -2.769531 0.375 -3.375 C 0.375 -4.039062 0.53125 -4.640625 0.84375 -5.171875 C 1.164062 -5.703125 1.609375 -6.117188 2.171875 -6.421875 C 2.734375 -6.722656 3.367188 -6.875 4.078125 -6.875 C 4.773438 -6.875 5.40625 -6.722656 5.96875 -6.421875 C 6.53125 -6.117188 6.96875 -5.703125 7.28125 -5.171875 C 7.601562 -4.640625 7.765625 -4.039062 7.765625 -3.375 C 7.765625 -2.59375 7.546875 -1.90625 7.109375 -1.3125 C 6.671875 -0.71875 6.085938 -0.304688 5.359375 -0.078125 C 5.515625 0.0859375 5.664062 0.207031 5.8125 0.28125 C 5.96875 0.351562 6.132812 0.390625 6.3125 0.390625 C 6.726562 0.390625 7.097656 0.222656 7.421875 -0.109375 Z M 1.953125 -3.375 C 1.953125 -2.957031 2.046875 -2.582031 2.234375 -2.25 C 2.421875 -1.925781 2.671875 -1.671875 2.984375 -1.484375 C 3.304688 -1.304688 3.671875 -1.21875 4.078125 -1.21875 C 4.472656 -1.21875 4.832031 -1.304688 5.15625 -1.484375 C 5.476562 -1.671875 5.726562 -1.925781 5.90625 -2.25 C 6.09375 -2.582031 6.1875 -2.957031 6.1875 -3.375 C 6.1875 -3.789062 6.09375 -4.164062 5.90625 -4.5 C 5.726562 -4.832031 5.476562 -5.085938 5.15625 -5.265625 C 4.832031 -5.453125 4.472656 -5.546875 4.078125 -5.546875 C 3.671875 -5.546875 3.304688 -5.453125 2.984375 -5.265625 C 2.671875 -5.085938 2.421875 -4.832031 2.234375 -4.5 C 2.046875 -4.164062 1.953125 -3.789062 1.953125 -3.375 Z M 1.953125 -3.375 "/></g></g></g><g fill="#000000" fill-opacity="1"><g transform="translate(280.900884, 217.109128)"><g><path d="M 3.796875 0.109375 C 2.835938 0.109375 2.085938 -0.15625 1.546875 -0.6875 C 1.015625 -1.21875 0.75 -1.976562 0.75 -2.96875 L 0.75 -6.765625 L 2.3125 -6.765625 L 2.3125 -3.03125 C 2.3125 -1.820312 2.8125 -1.21875 3.8125 -1.21875 C 4.300781 -1.21875 4.675781 -1.363281 4.9375 -1.65625 C 5.195312 -1.945312 5.328125 -2.40625 5.328125 -3.03125 L 5.328125 -6.765625 L 6.859375 -6.765625 L 6.859375 -2.96875 C 6.859375 -1.976562 6.585938 -1.21875 6.046875 -0.6875 C 5.515625 -0.15625 4.765625 0.109375 3.796875 0.109375 Z M 3.796875 0.109375 "/></g></g></g><g fill="#000000" fill-opacity="1"><g transform="translate(293.186347, 217.109128)"><g><path d="M 0.796875 -6.765625 L 2.359375 -6.765625 L 2.359375 0 L 0.796875 0 Z M 0.796875 -6.765625 "/></g></g></g><g fill="#000000" fill-opacity="1"><g transform="translate(301.028959, 217.109128)"><g><path d="M 3.734375 -6.765625 C 4.328125 -6.765625 4.84375 -6.660156 5.28125 -6.453125 C 5.726562 -6.253906 6.066406 -5.972656 6.296875 -5.609375 C 6.535156 -5.242188 6.65625 -4.8125 6.65625 -4.3125 C 6.65625 -3.8125 6.535156 -3.375 6.296875 -3 C 6.066406 -2.632812 5.726562 -2.351562 5.28125 -2.15625 C 4.84375 -1.957031 4.328125 -1.859375 3.734375 -1.859375 L 2.359375 -1.859375 L 2.359375 0 L 0.796875 0 L 0.796875 -6.765625 Z M 3.640625 -3.140625 C 4.109375 -3.140625 4.460938 -3.238281 4.703125 -3.4375 C 4.953125 -3.644531 5.078125 -3.9375 5.078125 -4.3125 C 5.078125 -4.6875 4.953125 -4.972656 4.703125 -5.171875 C 4.460938 -5.378906 4.109375 -5.484375 3.640625 -5.484375 L 2.359375 -5.484375 L 2.359375 -3.140625 Z M 3.640625 -3.140625 "/></g></g></g><g fill="#000000" fill-opacity="1"><g transform="translate(312.773558, 217.109128)"><g><path d="M 4.078125 0.109375 C 3.367188 0.109375 2.734375 -0.0390625 2.171875 -0.34375 C 1.609375 -0.644531 1.164062 -1.0625 0.84375 -1.59375 C 0.53125 -2.125 0.375 -2.71875 0.375 -3.375 C 0.375 -4.039062 0.53125 -4.640625 0.84375 -5.171875 C 1.164062 -5.703125 1.609375 -6.117188 2.171875 -6.421875 C 2.734375 -6.722656 3.367188 -6.875 4.078125 -6.875 C 4.773438 -6.875 5.40625 -6.722656 5.96875 -6.421875 C 6.53125 -6.117188 6.96875 -5.703125 7.28125 -5.171875 C 7.601562 -4.640625 7.765625 -4.039062 7.765625 -3.375 C 7.765625 -2.71875 7.601562 -2.125 7.28125 -1.59375 C 6.96875 -1.0625 6.53125 -0.644531 5.96875 -0.34375 C 5.40625 -0.0390625 4.773438 0.109375 4.078125 0.109375 Z M 4.078125 -1.21875 C 4.472656 -1.21875 4.832031 -1.304688 5.15625 -1.484375 C 5.476562 -1.671875 5.726562 -1.925781 5.90625 -2.25 C 6.09375 -2.582031 6.1875 -2.957031 6.1875 -3.375 C 6.1875 -3.789062 6.09375 -4.164062 5.90625 -4.5 C 5.726562 -4.832031 5.476562 -5.085938 5.15625 -5.265625 C 4.832031 -5.453125 4.472656 -5.546875 4.078125 -5.546875 C 3.671875 -5.546875 3.304688 -5.453125 2.984375 -5.265625 C 2.671875 -5.085938 2.421875 -4.832031 2.234375 -4.5 C 2.046875 -4.164062 1.953125 -3.789062 1.953125 -3.375 C 1.953125 -2.957031 2.046875 -2.582031 2.234375 -2.25 C 2.421875 -1.925781 2.671875 -1.671875 2.984375 -1.484375 C 3.304688 -1.304688 3.671875 -1.21875 4.078125 -1.21875 Z M 4.078125 -1.21875 "/></g></g></g></svg>