<svg xmlns="http://www.w3.org/2000/svg" xmlns:xlink="http://www.w3.org/1999/xlink" width="500" zoomAndPan="magnify" viewBox="0 0 375 374.999991" height="500" preserveAspectRatio="xMidYMid meet" version="1.0"><defs><g/><clipPath id="930de0e3f7"><path d="M 107.21875 14.140625 L 267.78125 14.140625 L 267.78125 360.859375 L 107.21875 360.859375 Z M 107.21875 14.140625 " clip-rule="nonzero"/></clipPath><clipPath id="29e27891ff"><path d="M 96.875 54 L 100 54 L 100 72 L 96.875 72 Z M 96.875 54 " clip-rule="nonzero"/></clipPath><clipPath id="630384a861"><path d="M 96.875 80 L 100 80 L 100 109 L 96.875 109 Z M 96.875 80 " clip-rule="nonzero"/></clipPath><clipPath id="dae951d1f0"><path d="M 96.875 113 L 100 113 L 100 143 L 96.875 143 Z M 96.875 113 " clip-rule="nonzero"/></clipPath><clipPath id="6bb8bf8111"><path d="M 275 90 L 278.375 90 L 278.375 134 L 275 134 Z M 275 90 " clip-rule="nonzero"/></clipPath><clipPath id="a8ae3494f5"><path d="M 98 7.597656 L 277 7.597656 L 277 367.597656 L 98 367.597656 Z M 98 7.597656 " clip-rule="nonzero"/></clipPath><clipPath id="57468c13dc"><path d="M 147.414062 114.375 L 224 114.375 L 224 195 L 147.414062 195 Z M 147.414062 114.375 " clip-rule="nonzero"/></clipPath><clipPath id="f9ec9efe01"><path d="M 187 154 L 227.59375 154 L 227.59375 195 L 187 195 Z M 187 154 " clip-rule="nonzero"/></clipPath><clipPath id="e3bb51066a"><path d="M 196.78125 163.160156 L 220.5625 163.160156 L 220.5625 186.9375 L 196.78125 186.9375 Z M 196.78125 163.160156 " clip-rule="nonzero"/></clipPath><clipPath id="ede25c9669"><path d="M 208.671875 163.160156 C 202.105469 163.160156 196.78125 168.484375 196.78125 175.050781 C 196.78125 181.617188 202.105469 186.9375 208.671875 186.9375 C 215.238281 186.9375 220.5625 181.617188 220.5625 175.050781 C 220.5625 168.484375 215.238281 163.160156 208.671875 163.160156 " clip-rule="nonzero"/></clipPath><clipPath id="47d1a06395"><path d="M 190.890625 157.269531 L 226.414062 157.269531 L 226.414062 192.789062 L 190.890625 192.789062 Z M 190.890625 157.269531 " clip-rule="nonzero"/></clipPath></defs><g clip-path="url(#930de0e3f7)"><path fill="#ffffff" d="M 107.21875 14.140625 L 267.648438 14.140625 L 267.648438 360.675781 L 107.21875 360.675781 Z M 107.21875 14.140625 " fill-opacity="1" fill-rule="nonzero"/></g><g clip-path="url(#29e27891ff)"><path fill="#000000" d="M 96.964844 56.078125 C 96.964844 55.304688 97.609375 54.660156 98.382812 54.660156 C 99.160156 54.660156 99.804688 55.304688 99.804688 56.078125 L 99.804688 69.746094 C 99.804688 70.519531 99.160156 71.164062 98.382812 71.164062 C 97.609375 71.164062 96.964844 70.519531 96.964844 69.746094 Z M 96.964844 56.078125 " fill-opacity="1" fill-rule="nonzero"/></g><g clip-path="url(#630384a861)"><path fill="#000000" d="M 96.964844 81.738281 C 96.964844 80.964844 97.609375 80.320312 98.382812 80.320312 C 99.160156 80.320312 99.804688 80.964844 99.804688 81.738281 L 99.804688 107.398438 C 99.804688 108.171875 99.160156 108.816406 98.382812 108.816406 C 97.609375 108.816406 96.964844 108.171875 96.964844 107.398438 Z M 96.964844 81.738281 " fill-opacity="1" fill-rule="nonzero"/></g><g clip-path="url(#dae951d1f0)"><path fill="#000000" d="M 96.964844 115.003906 C 96.964844 114.230469 97.609375 113.585938 98.382812 113.585938 C 99.160156 113.585938 99.804688 114.230469 99.804688 115.003906 L 99.804688 140.535156 C 99.804688 141.308594 99.160156 142.082031 98.382812 142.082031 C 97.609375 142.082031 96.964844 141.308594 96.964844 140.535156 Z M 96.964844 115.003906 " fill-opacity="1" fill-rule="nonzero"/></g><g clip-path="url(#6bb8bf8111)"><path fill="#000000" d="M 275.445312 91.535156 C 275.445312 90.761719 276.089844 90.117188 276.863281 90.117188 C 277.636719 90.117188 278.28125 90.761719 278.28125 91.535156 L 278.28125 132.023438 C 278.28125 132.925781 277.636719 133.570312 276.863281 133.570312 C 276.089844 133.570312 275.445312 132.925781 275.445312 132.023438 Z M 275.445312 91.535156 " fill-opacity="1" fill-rule="nonzero"/></g><g clip-path="url(#a8ae3494f5)"><path fill="#808080" d="M 121.226562 7.597656 L 253.503906 7.597656 C 266.023438 7.597656 276.21875 17.785156 276.21875 30.289062 L 276.21875 344.902344 C 276.21875 357.410156 266.023438 367.597656 253.503906 367.597656 L 121.226562 367.597656 C 108.707031 367.597656 98.515625 357.410156 98.515625 344.902344 L 98.515625 30.289062 C 98.515625 17.785156 108.707031 7.597656 121.226562 7.597656 Z M 126.390625 18.945312 L 248.472656 18.945312 C 258.023438 18.945312 265.894531 26.808594 265.894531 36.351562 L 265.894531 339.746094 C 265.894531 349.289062 258.023438 357.152344 248.472656 357.152344 L 126.390625 357.152344 C 116.710938 357.152344 108.835938 349.289062 108.835938 339.746094 L 108.835938 36.351562 C 108.835938 26.808594 116.710938 18.945312 126.390625 18.945312 Z M 126.390625 18.945312 " fill-opacity="1" fill-rule="evenodd"/></g><path fill="#000000" d="M 123.164062 9.917969 L 251.570312 9.917969 C 263.699219 9.917969 273.636719 19.847656 273.636719 31.835938 L 273.636719 342.582031 C 273.636719 354.703125 263.699219 364.632812 251.570312 364.632812 L 123.164062 364.632812 C 111.03125 364.632812 101.09375 354.703125 101.09375 342.582031 L 101.09375 31.835938 C 101.09375 19.847656 111.03125 9.917969 123.164062 9.917969 Z M 231.179688 18.945312 C 231.179688 19.332031 231.179688 19.71875 231.179688 20.234375 C 231.179688 25.90625 226.53125 30.546875 220.855469 30.546875 L 153.488281 30.546875 C 147.8125 30.546875 143.164062 25.90625 143.164062 20.234375 C 143.164062 19.71875 143.292969 19.332031 143.292969 18.945312 L 126.390625 18.945312 C 116.710938 18.945312 108.835938 26.808594 108.835938 36.351562 L 108.835938 339.746094 C 108.835938 349.289062 116.710938 357.152344 126.390625 357.152344 L 248.472656 357.152344 C 258.023438 357.152344 265.894531 349.289062 265.894531 339.746094 L 265.894531 36.351562 C 265.894531 26.808594 258.023438 18.945312 248.472656 18.945312 Z M 231.179688 18.945312 " fill-opacity="1" fill-rule="evenodd"/><path fill="#4d4d4d" d="M 210.015625 21.910156 C 210.015625 22.320312 209.9375 22.714844 209.777344 23.09375 C 209.621094 23.472656 209.398438 23.808594 209.105469 24.097656 C 208.816406 24.386719 208.480469 24.613281 208.101562 24.769531 C 207.722656 24.925781 207.328125 25.003906 206.917969 25.003906 C 206.507812 25.003906 206.113281 24.925781 205.730469 24.769531 C 205.351562 24.613281 205.015625 24.386719 204.726562 24.097656 C 204.4375 23.808594 204.210938 23.472656 204.054688 23.09375 C 203.898438 22.714844 203.820312 22.320312 203.820312 21.910156 C 203.820312 21.5 203.898438 21.105469 204.054688 20.726562 C 204.210938 20.347656 204.4375 20.011719 204.726562 19.722656 C 205.015625 19.429688 205.351562 19.207031 205.730469 19.050781 C 206.113281 18.894531 206.507812 18.816406 206.917969 18.816406 C 207.328125 18.816406 207.722656 18.894531 208.101562 19.050781 C 208.480469 19.207031 208.816406 19.429688 209.105469 19.722656 C 209.398438 20.011719 209.621094 20.347656 209.777344 20.726562 C 209.9375 21.105469 210.015625 21.5 210.015625 21.910156 Z M 210.015625 21.910156 " fill-opacity="1" fill-rule="nonzero"/><path fill="#4d4d4d" d="M 187.003906 20.878906 C 187.714844 20.878906 188.417969 20.886719 189.113281 20.902344 C 189.808594 20.917969 190.484375 20.945312 191.136719 20.976562 C 191.792969 21.007812 192.417969 21.046875 193.003906 21.09375 C 193.59375 21.140625 194.140625 21.195312 194.644531 21.253906 C 195.144531 21.316406 195.59375 21.378906 195.984375 21.449219 C 196.378906 21.519531 196.710938 21.59375 196.984375 21.671875 C 197.253906 21.75 197.460938 21.832031 197.597656 21.914062 C 197.738281 22 197.804688 22.082031 197.804688 22.167969 C 197.804688 22.25 197.738281 22.335938 197.597656 22.417969 C 197.460938 22.5 197.253906 22.582031 196.984375 22.660156 C 196.710938 22.738281 196.378906 22.8125 195.984375 22.882812 C 195.59375 22.953125 195.144531 23.019531 194.644531 23.078125 C 194.140625 23.136719 193.59375 23.191406 193.003906 23.238281 C 192.417969 23.285156 191.792969 23.324219 191.136719 23.359375 C 190.484375 23.390625 189.808594 23.414062 189.113281 23.429688 C 188.417969 23.449219 187.714844 23.457031 187.003906 23.457031 C 186.296875 23.457031 185.59375 23.449219 184.898438 23.429688 C 184.203125 23.414062 183.527344 23.390625 182.871094 23.359375 C 182.214844 23.324219 181.59375 23.285156 181.003906 23.238281 C 180.414062 23.191406 179.867188 23.136719 179.367188 23.078125 C 178.863281 23.019531 178.417969 22.953125 178.023438 22.882812 C 177.628906 22.8125 177.296875 22.738281 177.023438 22.660156 C 176.753906 22.582031 176.546875 22.5 176.410156 22.417969 C 176.273438 22.335938 176.203125 22.25 176.203125 22.167969 C 176.203125 22.082031 176.273438 22 176.410156 21.914062 C 176.546875 21.832031 176.753906 21.75 177.023438 21.671875 C 177.296875 21.59375 177.628906 21.519531 178.023438 21.449219 C 178.417969 21.378906 178.863281 21.316406 179.367188 21.253906 C 179.867188 21.195312 180.414062 21.140625 181.003906 21.09375 C 181.59375 21.046875 182.214844 21.007812 182.871094 20.976562 C 183.527344 20.945312 184.203125 20.917969 184.898438 20.902344 C 185.59375 20.886719 186.296875 20.878906 187.003906 20.878906 Z M 187.003906 20.878906 " fill-opacity="1" fill-rule="evenodd"/><g clip-path="url(#57468c13dc)"><path fill="#62b334" d="M 186.597656 189.859375 L 185.441406 190.4375 L 151.460938 175.304688 L 151.460938 135.570312 L 184.679688 150.363281 C 185.222656 150.605469 185.765625 150.605469 186.304688 150.363281 L 219.523438 135.570312 L 219.523438 152.539062 C 219.527344 152.804688 219.582031 153.058594 219.683594 153.300781 C 219.785156 153.546875 219.929688 153.761719 220.117188 153.945312 C 220.304688 154.132812 220.519531 154.277344 220.765625 154.375 C 221.007812 154.476562 221.261719 154.527344 221.527344 154.527344 C 221.789062 154.527344 222.042969 154.476562 222.289062 154.375 C 222.53125 154.277344 222.75 154.132812 222.9375 153.945312 C 223.121094 153.761719 223.269531 153.546875 223.371094 153.300781 C 223.472656 153.058594 223.527344 152.804688 223.527344 152.539062 L 223.527344 132.484375 C 223.527344 132.085938 223.421875 131.722656 223.207031 131.390625 C 222.988281 131.058594 222.703125 130.8125 222.339844 130.652344 L 186.304688 114.605469 C 185.765625 114.363281 185.222656 114.363281 184.679688 114.605469 L 148.644531 130.652344 C 148.285156 130.8125 147.996094 131.058594 147.78125 131.390625 C 147.566406 131.722656 147.457031 132.085938 147.457031 132.484375 L 147.457031 176.609375 C 147.457031 177.007812 147.566406 177.371094 147.78125 177.703125 C 147.996094 178.035156 148.285156 178.28125 148.644531 178.441406 L 184.679688 194.488281 C 185.253906 194.746094 185.824219 194.730469 186.386719 194.449219 L 188.390625 193.449219 C 188.628906 193.328125 188.835938 193.171875 189.011719 192.96875 C 189.1875 192.769531 189.316406 192.542969 189.402344 192.289062 C 189.488281 192.035156 189.519531 191.777344 189.5 191.507812 C 189.484375 191.242188 189.414062 190.988281 189.296875 190.75 C 189.175781 190.511719 189.015625 190.304688 188.8125 190.132812 C 188.613281 189.957031 188.386719 189.828125 188.132812 189.742188 C 187.878906 189.660156 187.621094 189.628906 187.355469 189.648438 C 187.089844 189.667969 186.835938 189.738281 186.597656 189.859375 Z M 185.492188 146.335938 L 171.328125 140.027344 L 202.320312 126.226562 C 202.355469 126.210938 202.386719 126.1875 202.421875 126.171875 L 216.597656 132.484375 Z M 185.492188 118.632812 L 197.503906 123.980469 L 166.664062 137.714844 C 166.582031 137.753906 166.507812 137.796875 166.433594 137.847656 L 154.390625 132.484375 Z M 185.492188 118.632812 " fill-opacity="1" fill-rule="nonzero"/></g><g clip-path="url(#f9ec9efe01)"><path fill="#62b334" d="M 207.515625 154.546875 C 206.859375 154.546875 206.203125 154.578125 205.550781 154.644531 C 204.898438 154.707031 204.25 154.804688 203.609375 154.933594 C 202.964844 155.058594 202.328125 155.21875 201.703125 155.410156 C 201.074219 155.601562 200.457031 155.820312 199.851562 156.074219 C 199.246094 156.324219 198.65625 156.605469 198.078125 156.914062 C 197.5 157.222656 196.9375 157.5625 196.390625 157.925781 C 195.847656 158.292969 195.320312 158.683594 194.8125 159.097656 C 194.308594 159.515625 193.820312 159.957031 193.359375 160.421875 C 192.894531 160.886719 192.453125 161.371094 192.039062 161.878906 C 191.621094 162.386719 191.234375 162.914062 190.867188 163.460938 C 190.503906 164.007812 190.167969 164.570312 189.859375 165.148438 C 189.550781 165.726562 189.269531 166.320312 189.019531 166.929688 C 188.769531 167.535156 188.546875 168.152344 188.355469 168.78125 C 188.167969 169.410156 188.007812 170.046875 187.878906 170.691406 C 187.75 171.335938 187.65625 171.984375 187.589844 172.636719 C 187.527344 173.292969 187.496094 173.945312 187.496094 174.605469 C 187.496094 175.261719 187.527344 175.917969 187.589844 176.570312 C 187.65625 177.222656 187.75 177.871094 187.878906 178.515625 C 188.007812 179.160156 188.167969 179.796875 188.355469 180.425781 C 188.546875 181.054688 188.769531 181.671875 189.019531 182.28125 C 189.269531 182.886719 189.550781 183.480469 189.859375 184.058594 C 190.167969 184.636719 190.503906 185.203125 190.867188 185.746094 C 191.234375 186.292969 191.621094 186.820312 192.039062 187.328125 C 192.453125 187.835938 192.894531 188.324219 193.359375 188.785156 C 193.820312 189.25 194.308594 189.691406 194.8125 190.109375 C 195.320312 190.527344 195.847656 190.917969 196.390625 191.28125 C 196.9375 191.644531 197.5 191.984375 198.078125 192.292969 C 198.65625 192.601562 199.246094 192.882812 199.851562 193.136719 C 200.457031 193.386719 201.074219 193.605469 201.703125 193.796875 C 202.328125 193.988281 202.964844 194.148438 203.609375 194.277344 C 204.25 194.40625 204.898438 194.5 205.550781 194.566406 C 206.203125 194.628906 206.859375 194.660156 207.511719 194.660156 C 208.167969 194.660156 208.824219 194.628906 209.476562 194.566406 C 210.128906 194.5 210.777344 194.40625 211.417969 194.277344 C 212.0625 194.148438 212.699219 193.988281 213.324219 193.796875 C 213.953125 193.605469 214.570312 193.386719 215.175781 193.136719 C 215.78125 192.882812 216.371094 192.601562 216.949219 192.292969 C 217.527344 191.984375 218.089844 191.644531 218.636719 191.28125 C 219.179688 190.917969 219.707031 190.527344 220.214844 190.109375 C 220.71875 189.691406 221.207031 189.25 221.667969 188.785156 C 222.132812 188.324219 222.574219 187.835938 222.988281 187.328125 C 223.402344 186.820312 223.792969 186.292969 224.160156 185.746094 C 224.523438 185.203125 224.859375 184.636719 225.167969 184.058594 C 225.476562 183.480469 225.757812 182.886719 226.007812 182.28125 C 226.257812 181.671875 226.480469 181.054688 226.671875 180.425781 C 226.859375 179.796875 227.019531 179.160156 227.148438 178.515625 C 227.277344 177.871094 227.371094 177.222656 227.4375 176.570312 C 227.5 175.917969 227.53125 175.261719 227.53125 174.605469 C 227.53125 173.949219 227.5 173.292969 227.433594 172.640625 C 227.367188 171.984375 227.273438 171.335938 227.144531 170.691406 C 227.015625 170.046875 226.855469 169.414062 226.664062 168.785156 C 226.476562 168.15625 226.253906 167.539062 226.003906 166.933594 C 225.75 166.324219 225.472656 165.734375 225.160156 165.152344 C 224.851562 164.574219 224.515625 164.011719 224.152344 163.464844 C 223.789062 162.921875 223.398438 162.394531 222.980469 161.886719 C 222.566406 161.378906 222.125 160.890625 221.664062 160.429688 C 221.199219 159.964844 220.714844 159.523438 220.207031 159.105469 C 219.699219 158.691406 219.175781 158.296875 218.628906 157.933594 C 218.085938 157.570312 217.523438 157.230469 216.945312 156.921875 C 216.367188 156.613281 215.777344 156.332031 215.171875 156.078125 C 214.566406 155.828125 213.949219 155.605469 213.324219 155.414062 C 212.695312 155.222656 212.058594 155.0625 211.417969 154.9375 C 210.773438 154.808594 210.128906 154.710938 209.476562 154.644531 C 208.824219 154.582031 208.167969 154.546875 207.515625 154.546875 Z M 207.515625 190.648438 C 206.988281 190.648438 206.464844 190.625 205.945312 190.574219 C 205.421875 190.519531 204.902344 190.445312 204.390625 190.339844 C 203.875 190.238281 203.367188 190.113281 202.863281 189.960938 C 202.363281 189.804688 201.871094 189.628906 201.386719 189.429688 C 200.902344 189.226562 200.425781 189.003906 199.964844 188.753906 C 199.5 188.507812 199.050781 188.238281 198.617188 187.945312 C 198.179688 187.652344 197.757812 187.339844 197.355469 187.007812 C 196.949219 186.675781 196.558594 186.320312 196.191406 185.949219 C 195.820312 185.578125 195.46875 185.191406 195.132812 184.785156 C 194.800781 184.378906 194.488281 183.957031 194.199219 183.519531 C 193.90625 183.082031 193.636719 182.632812 193.390625 182.167969 C 193.144531 181.703125 192.917969 181.230469 192.71875 180.746094 C 192.515625 180.257812 192.339844 179.765625 192.1875 179.261719 C 192.035156 178.757812 191.910156 178.25 191.804688 177.734375 C 191.703125 177.21875 191.628906 176.699219 191.574219 176.175781 C 191.523438 175.652344 191.5 175.128906 191.5 174.605469 C 191.5 174.078125 191.523438 173.554688 191.574219 173.03125 C 191.628906 172.507812 191.703125 171.988281 191.804688 171.472656 C 191.910156 170.957031 192.035156 170.449219 192.1875 169.945312 C 192.339844 169.441406 192.515625 168.949219 192.71875 168.464844 C 192.917969 167.976562 193.144531 167.503906 193.390625 167.039062 C 193.636719 166.578125 193.90625 166.125 194.199219 165.691406 C 194.488281 165.253906 194.800781 164.832031 195.132812 164.425781 C 195.46875 164.019531 195.820312 163.628906 196.191406 163.257812 C 196.558594 162.886719 196.949219 162.535156 197.355469 162.199219 C 197.757812 161.867188 198.179688 161.554688 198.617188 161.261719 C 199.050781 160.96875 199.5 160.699219 199.964844 160.453125 C 200.425781 160.207031 200.902344 159.980469 201.386719 159.78125 C 201.871094 159.578125 202.363281 159.402344 202.863281 159.25 C 203.367188 159.097656 203.875 158.96875 204.390625 158.867188 C 204.902344 158.765625 205.421875 158.6875 205.945312 158.636719 C 206.464844 158.582031 206.988281 158.558594 207.515625 158.558594 C 208.039062 158.558594 208.5625 158.582031 209.082031 158.636719 C 209.605469 158.6875 210.125 158.765625 210.636719 158.867188 C 211.152344 158.96875 211.660156 159.097656 212.164062 159.25 C 212.664062 159.402344 213.15625 159.578125 213.640625 159.78125 C 214.128906 159.980469 214.601562 160.207031 215.0625 160.453125 C 215.527344 160.699219 215.976562 160.96875 216.410156 161.261719 C 216.847656 161.554688 217.269531 161.867188 217.671875 162.199219 C 218.078125 162.535156 218.46875 162.886719 218.839844 163.257812 C 219.207031 163.628906 219.5625 164.019531 219.894531 164.425781 C 220.226562 164.832031 220.539062 165.253906 220.828125 165.691406 C 221.121094 166.125 221.390625 166.578125 221.636719 167.039062 C 221.886719 167.503906 222.109375 167.976562 222.308594 168.464844 C 222.511719 168.949219 222.6875 169.441406 222.839844 169.945312 C 222.992188 170.449219 223.117188 170.957031 223.222656 171.472656 C 223.324219 171.988281 223.398438 172.507812 223.453125 173.03125 C 223.503906 173.554688 223.527344 174.078125 223.527344 174.605469 C 223.527344 175.128906 223.5 175.652344 223.449219 176.175781 C 223.398438 176.699219 223.320312 177.21875 223.21875 177.734375 C 223.113281 178.25 222.988281 178.757812 222.835938 179.261719 C 222.683594 179.761719 222.503906 180.257812 222.304688 180.742188 C 222.105469 181.226562 221.878906 181.703125 221.632812 182.164062 C 221.386719 182.628906 221.117188 183.078125 220.824219 183.515625 C 220.53125 183.953125 220.21875 184.371094 219.886719 184.777344 C 219.554688 185.183594 219.203125 185.574219 218.832031 185.945312 C 218.460938 186.316406 218.074219 186.667969 217.667969 187.003906 C 217.261719 187.335938 216.84375 187.648438 216.40625 187.941406 C 215.972656 188.230469 215.523438 188.503906 215.058594 188.75 C 214.597656 188.996094 214.125 189.222656 213.640625 189.421875 C 213.15625 189.625 212.664062 189.800781 212.160156 189.953125 C 211.660156 190.109375 211.152344 190.234375 210.636719 190.339844 C 210.121094 190.441406 209.605469 190.519531 209.082031 190.570312 C 208.5625 190.625 208.039062 190.648438 207.515625 190.648438 Z M 207.515625 190.648438 " fill-opacity="1" fill-rule="nonzero"/></g><path fill="#62b334" d="M 214.105469 169.175781 L 205.511719 177.785156 L 201.921875 174.1875 C 201.734375 173.996094 201.519531 173.847656 201.273438 173.746094 C 201.027344 173.640625 200.769531 173.585938 200.503906 173.585938 C 200.234375 173.582031 199.976562 173.632812 199.730469 173.734375 C 199.484375 173.835938 199.265625 173.984375 199.074219 174.171875 C 198.886719 174.363281 198.742188 174.582031 198.640625 174.828125 C 198.539062 175.078125 198.488281 175.335938 198.488281 175.601562 C 198.492188 175.871094 198.542969 176.128906 198.648438 176.375 C 198.753906 176.621094 198.902344 176.835938 199.09375 177.023438 L 204.097656 182.039062 C 204.285156 182.226562 204.5 182.371094 204.746094 182.472656 C 204.992188 182.578125 205.246094 182.628906 205.511719 182.628906 C 205.777344 182.628906 206.03125 182.578125 206.277344 182.472656 C 206.523438 182.371094 206.738281 182.226562 206.925781 182.039062 L 216.9375 172.011719 C 217.121094 171.820312 217.261719 171.605469 217.359375 171.359375 C 217.460938 171.117188 217.507812 170.863281 217.507812 170.597656 C 217.503906 170.332031 217.453125 170.078125 217.351562 169.835938 C 217.25 169.59375 217.105469 169.378906 216.921875 169.191406 C 216.734375 169.003906 216.519531 168.859375 216.277344 168.757812 C 216.03125 168.65625 215.78125 168.605469 215.515625 168.605469 C 215.253906 168.601562 215 168.652344 214.753906 168.75 C 214.511719 168.847656 214.292969 168.988281 214.105469 169.175781 Z M 214.105469 169.175781 " fill-opacity="1" fill-rule="nonzero"/><g clip-path="url(#e3bb51066a)"><g clip-path="url(#ede25c9669)"><path fill="#ffffff" d="M 196.78125 163.160156 L 220.5625 163.160156 L 220.5625 186.9375 L 196.78125 186.9375 Z M 196.78125 163.160156 " fill-opacity="1" fill-rule="nonzero"/></g></g><g clip-path="url(#47d1a06395)"><path fill="#62b334" d="M 208.652344 192.789062 C 218.460938 192.789062 226.414062 184.839844 226.414062 175.027344 C 226.414062 165.21875 218.460938 157.269531 208.652344 157.269531 C 198.84375 157.269531 190.890625 165.21875 190.890625 175.027344 C 190.890625 184.839844 198.84375 192.789062 208.652344 192.789062 Z M 205.382812 166.054688 L 211.9375 166.054688 C 213.300781 166.054688 214.398438 167.152344 214.398438 168.511719 L 214.398438 181.625 C 214.398438 182.988281 213.300781 184.085938 211.9375 184.085938 L 205.382812 184.085938 C 204.019531 184.085938 202.921875 182.988281 202.921875 181.625 L 202.921875 168.511719 C 202.921875 167.152344 204.019531 166.054688 205.382812 166.054688 Z M 204.5625 179.988281 L 212.757812 179.988281 L 212.757812 168.511719 L 204.5625 168.511719 Z M 207.019531 182.445312 L 210.300781 182.445312 L 210.300781 181.625 L 207.019531 181.625 Z M 207.019531 182.445312 " fill-opacity="1" fill-rule="evenodd"/></g><g fill="#000000" fill-opacity="1"><g transform="translate(125.652248, 223.102547)"><g><path d="M 1.421875 -12.046875 L 4.21875 -12.046875 L 4.21875 0 L 1.421875 0 Z M 1.421875 -12.046875 "/></g></g></g><g fill="#000000" fill-opacity="1"><g transform="translate(132.17366, 223.102547)"><g><path d="M 12.46875 -12.046875 L 12.46875 0 L 10.1875 0 L 4.1875 -7.3125 L 4.1875 0 L 1.421875 0 L 1.421875 -12.046875 L 3.734375 -12.046875 L 9.71875 -4.734375 L 9.71875 -12.046875 Z M 12.46875 -12.046875 "/></g></g></g><g fill="#000000" fill-opacity="1"><g transform="translate(146.954012, 223.102547)"><g><path d="M 13 -12.046875 L 7.796875 0 L 5.046875 0 L -0.15625 -12.046875 L 2.859375 -12.046875 L 6.515625 -3.4375 L 10.234375 -12.046875 Z M 13 -12.046875 "/></g></g></g><g fill="#000000" fill-opacity="1"><g transform="translate(160.667586, 223.102547)"><g><path d="M 10.75 -2.234375 L 10.75 0 L 1.421875 0 L 1.421875 -12.046875 L 10.53125 -12.046875 L 10.53125 -9.8125 L 4.203125 -9.8125 L 4.203125 -7.1875 L 9.78125 -7.1875 L 9.78125 -5.015625 L 4.203125 -5.015625 L 4.203125 -2.234375 Z M 10.75 -2.234375 "/></g></g></g><g fill="#000000" fill-opacity="1"><g transform="translate(173.090701, 223.102547)"><g><path d="M 12.46875 -12.046875 L 12.46875 0 L 10.1875 0 L 4.1875 -7.3125 L 4.1875 0 L 1.421875 0 L 1.421875 -12.046875 L 3.734375 -12.046875 L 9.71875 -4.734375 L 9.71875 -12.046875 Z M 12.46875 -12.046875 "/></g></g></g><g fill="#000000" fill-opacity="1"><g transform="translate(187.871051, 223.102547)"><g><path d="M 3.921875 -9.765625 L 0.0625 -9.765625 L 0.0625 -12.046875 L 10.5625 -12.046875 L 10.5625 -9.765625 L 6.703125 -9.765625 L 6.703125 0 L 3.921875 0 Z M 3.921875 -9.765625 "/></g></g></g><g fill="#000000" fill-opacity="1"><g transform="translate(199.382237, 223.102547)"><g><path d="M 7.265625 0.203125 C 6.015625 0.203125 4.882812 -0.0625 3.875 -0.59375 C 2.875 -1.132812 2.085938 -1.878906 1.515625 -2.828125 C 0.953125 -3.773438 0.671875 -4.835938 0.671875 -6.015625 C 0.671875 -7.203125 0.953125 -8.265625 1.515625 -9.203125 C 2.085938 -10.148438 2.875 -10.894531 3.875 -11.4375 C 4.882812 -11.976562 6.015625 -12.25 7.265625 -12.25 C 8.515625 -12.25 9.632812 -11.976562 10.625 -11.4375 C 11.625 -10.894531 12.410156 -10.148438 12.984375 -9.203125 C 13.554688 -8.265625 13.84375 -7.203125 13.84375 -6.015625 C 13.84375 -4.835938 13.554688 -3.773438 12.984375 -2.828125 C 12.410156 -1.878906 11.625 -1.132812 10.625 -0.59375 C 9.632812 -0.0625 8.515625 0.203125 7.265625 0.203125 Z M 7.265625 -2.171875 C 7.972656 -2.171875 8.613281 -2.332031 9.1875 -2.65625 C 9.757812 -2.976562 10.207031 -3.429688 10.53125 -4.015625 C 10.863281 -4.609375 11.03125 -5.273438 11.03125 -6.015625 C 11.03125 -6.765625 10.863281 -7.429688 10.53125 -8.015625 C 10.207031 -8.597656 9.757812 -9.050781 9.1875 -9.375 C 8.613281 -9.707031 7.972656 -9.875 7.265625 -9.875 C 6.546875 -9.875 5.898438 -9.707031 5.328125 -9.375 C 4.753906 -9.050781 4.304688 -8.597656 3.984375 -8.015625 C 3.660156 -7.429688 3.5 -6.765625 3.5 -6.015625 C 3.5 -5.273438 3.660156 -4.609375 3.984375 -4.015625 C 4.304688 -3.429688 4.753906 -2.976562 5.328125 -2.65625 C 5.898438 -2.332031 6.546875 -2.171875 7.265625 -2.171875 Z M 7.265625 -2.171875 "/></g></g></g><g fill="#000000" fill-opacity="1"><g transform="translate(214.782008, 223.102547)"><g><path d="M 9.09375 0 L 6.78125 -3.359375 L 4.21875 -3.359375 L 4.21875 0 L 1.421875 0 L 1.421875 -12.046875 L 6.640625 -12.046875 C 7.703125 -12.046875 8.625 -11.863281 9.40625 -11.5 C 10.195312 -11.144531 10.804688 -10.640625 11.234375 -9.984375 C 11.660156 -9.335938 11.875 -8.566406 11.875 -7.671875 C 11.875 -6.773438 11.65625 -6.003906 11.21875 -5.359375 C 10.789062 -4.710938 10.179688 -4.21875 9.390625 -3.875 L 12.09375 0 Z M 9.046875 -7.671875 C 9.046875 -8.347656 8.828125 -8.863281 8.390625 -9.21875 C 7.953125 -9.582031 7.316406 -9.765625 6.484375 -9.765625 L 4.21875 -9.765625 L 4.21875 -5.578125 L 6.484375 -5.578125 C 7.316406 -5.578125 7.953125 -5.757812 8.390625 -6.125 C 8.828125 -6.488281 9.046875 -7.003906 9.046875 -7.671875 Z M 9.046875 -7.671875 "/></g></g></g><g fill="#000000" fill-opacity="1"><g transform="translate(228.306315, 223.102547)"><g><path d="M 1.421875 -12.046875 L 4.21875 -12.046875 L 4.21875 0 L 1.421875 0 Z M 1.421875 -12.046875 "/></g></g></g><g fill="#000000" fill-opacity="1"><g transform="translate(234.827724, 223.102547)"><g><path d="M 7.265625 0.203125 C 6.015625 0.203125 4.882812 -0.0625 3.875 -0.59375 C 2.875 -1.132812 2.085938 -1.878906 1.515625 -2.828125 C 0.953125 -3.773438 0.671875 -4.835938 0.671875 -6.015625 C 0.671875 -7.203125 0.953125 -8.265625 1.515625 -9.203125 C 2.085938 -10.148438 2.875 -10.894531 3.875 -11.4375 C 4.882812 -11.976562 6.015625 -12.25 7.265625 -12.25 C 8.515625 -12.25 9.632812 -11.976562 10.625 -11.4375 C 11.625 -10.894531 12.410156 -10.148438 12.984375 -9.203125 C 13.554688 -8.265625 13.84375 -7.203125 13.84375 -6.015625 C 13.84375 -4.835938 13.554688 -3.773438 12.984375 -2.828125 C 12.410156 -1.878906 11.625 -1.132812 10.625 -0.59375 C 9.632812 -0.0625 8.515625 0.203125 7.265625 0.203125 Z M 7.265625 -2.171875 C 7.972656 -2.171875 8.613281 -2.332031 9.1875 -2.65625 C 9.757812 -2.976562 10.207031 -3.429688 10.53125 -4.015625 C 10.863281 -4.609375 11.03125 -5.273438 11.03125 -6.015625 C 11.03125 -6.765625 10.863281 -7.429688 10.53125 -8.015625 C 10.207031 -8.597656 9.757812 -9.050781 9.1875 -9.375 C 8.613281 -9.707031 7.972656 -9.875 7.265625 -9.875 C 6.546875 -9.875 5.898438 -9.707031 5.328125 -9.375 C 4.753906 -9.050781 4.304688 -8.597656 3.984375 -8.015625 C 3.660156 -7.429688 3.5 -6.765625 3.5 -6.015625 C 3.5 -5.273438 3.660156 -4.609375 3.984375 -4.015625 C 4.304688 -3.429688 4.753906 -2.976562 5.328125 -2.65625 C 5.898438 -2.332031 6.546875 -2.171875 7.265625 -2.171875 Z M 7.265625 -2.171875 "/></g></g></g><g fill="#000000" fill-opacity="1"><g transform="translate(122.809106, 230.707164)"><g><path d="M 1.921875 0.0625 C 1.585938 0.0625 1.285156 -0.0078125 1.015625 -0.15625 C 0.753906 -0.300781 0.546875 -0.5 0.390625 -0.75 C 0.242188 -1 0.171875 -1.28125 0.171875 -1.59375 C 0.171875 -1.90625 0.242188 -2.1875 0.390625 -2.4375 C 0.546875 -2.6875 0.753906 -2.882812 1.015625 -3.03125 C 1.285156 -3.175781 1.585938 -3.25 1.921875 -3.25 C 2.253906 -3.25 2.550781 -3.175781 2.8125 -3.03125 C 3.082031 -2.882812 3.289062 -2.6875 3.4375 -2.4375 C 3.59375 -2.1875 3.671875 -1.90625 3.671875 -1.59375 C 3.671875 -1.28125 3.59375 -1 3.4375 -0.75 C 3.289062 -0.5 3.082031 -0.300781 2.8125 -0.15625 C 2.550781 -0.0078125 2.253906 0.0625 1.921875 0.0625 Z M 1.921875 -0.578125 C 2.109375 -0.578125 2.28125 -0.617188 2.4375 -0.703125 C 2.59375 -0.785156 2.710938 -0.90625 2.796875 -1.0625 C 2.878906 -1.21875 2.921875 -1.394531 2.921875 -1.59375 C 2.921875 -1.789062 2.878906 -1.96875 2.796875 -2.125 C 2.710938 -2.28125 2.59375 -2.398438 2.4375 -2.484375 C 2.28125 -2.578125 2.109375 -2.625 1.921875 -2.625 C 1.734375 -2.625 1.5625 -2.578125 1.40625 -2.484375 C 1.257812 -2.398438 1.140625 -2.28125 1.046875 -2.125 C 0.960938 -1.96875 0.921875 -1.789062 0.921875 -1.59375 C 0.921875 -1.394531 0.960938 -1.21875 1.046875 -1.0625 C 1.140625 -0.90625 1.257812 -0.785156 1.40625 -0.703125 C 1.5625 -0.617188 1.734375 -0.578125 1.921875 -0.578125 Z M 1.921875 -0.578125 "/></g></g></g><g fill="#000000" fill-opacity="1"><g transform="translate(128.872588, 230.707164)"><g><path d="M 1.765625 -3.1875 C 2.046875 -3.1875 2.289062 -3.140625 2.5 -3.046875 C 2.707031 -2.953125 2.863281 -2.816406 2.96875 -2.640625 C 3.082031 -2.472656 3.140625 -2.269531 3.140625 -2.03125 C 3.140625 -1.800781 3.082031 -1.597656 2.96875 -1.421875 C 2.863281 -1.242188 2.707031 -1.109375 2.5 -1.015625 C 2.289062 -0.921875 2.046875 -0.875 1.765625 -0.875 L 1.125 -0.875 L 1.125 0 L 0.375 0 L 0.375 -3.1875 Z M 1.71875 -1.484375 C 1.9375 -1.484375 2.101562 -1.53125 2.21875 -1.625 C 2.34375 -1.71875 2.40625 -1.851562 2.40625 -2.03125 C 2.40625 -2.207031 2.34375 -2.34375 2.21875 -2.4375 C 2.101562 -2.539062 1.9375 -2.59375 1.71875 -2.59375 L 1.125 -2.59375 L 1.125 -1.484375 Z M 1.71875 -1.484375 "/></g></g></g><g fill="#000000" fill-opacity="1"><g transform="translate(134.42469, 230.707164)"><g><path d="M 1.046875 -2.59375 L 0.015625 -2.59375 L 0.015625 -3.1875 L 2.796875 -3.1875 L 2.796875 -2.59375 L 1.78125 -2.59375 L 1.78125 0 L 1.046875 0 Z M 1.046875 -2.59375 "/></g></g></g><g fill="#000000" fill-opacity="1"><g transform="translate(139.456282, 230.707164)"><g><path d="M 0.375 -3.1875 L 1.125 -3.1875 L 1.125 0 L 0.375 0 Z M 0.375 -3.1875 "/></g></g></g><g fill="#000000" fill-opacity="1"><g transform="translate(143.163769, 230.707164)"><g><path d="M 3.28125 0 L 3.28125 -1.921875 L 2.34375 -0.34375 L 2 -0.34375 L 1.078125 -1.875 L 1.078125 0 L 0.375 0 L 0.375 -3.1875 L 0.984375 -3.1875 L 2.1875 -1.203125 L 3.359375 -3.1875 L 3.96875 -3.1875 L 3.984375 0 Z M 3.28125 0 "/></g></g></g><g fill="#000000" fill-opacity="1"><g transform="translate(149.734067, 230.707164)"><g><path d="M 0.375 -3.1875 L 1.125 -3.1875 L 1.125 0 L 0.375 0 Z M 0.375 -3.1875 "/></g></g></g><g fill="#000000" fill-opacity="1"><g transform="translate(153.441554, 230.707164)"><g><path d="M 2.96875 -0.609375 L 2.96875 0 L 0.171875 0 L 0.171875 -0.484375 L 1.921875 -2.59375 L 0.203125 -2.59375 L 0.203125 -3.1875 L 2.890625 -3.1875 L 2.890625 -2.71875 L 1.15625 -0.609375 Z M 2.96875 -0.609375 "/></g></g></g><g fill="#000000" fill-opacity="1"><g transform="translate(158.715141, 230.707164)"><g><path d="M 2.484375 -0.6875 L 1 -0.6875 L 0.71875 0 L -0.046875 0 L 1.375 -3.1875 L 2.109375 -3.1875 L 3.546875 0 L 2.765625 0 Z M 2.25 -1.25 L 1.75 -2.46875 L 1.234375 -1.25 Z M 2.25 -1.25 "/></g></g></g><g fill="#000000" fill-opacity="1"><g transform="translate(164.422483, 230.707164)"><g/></g></g><g fill="#000000" fill-opacity="1"><g transform="translate(167.924504, 230.707164)"><g><path d="M 1.046875 -2.59375 L 0.015625 -2.59375 L 0.015625 -3.1875 L 2.796875 -3.1875 L 2.796875 -2.59375 L 1.78125 -2.59375 L 1.78125 0 L 1.046875 0 Z M 1.046875 -2.59375 "/></g></g></g><g fill="#000000" fill-opacity="1"><g transform="translate(172.956097, 230.707164)"><g><path d="M 1.796875 0.0625 C 1.335938 0.0625 0.976562 -0.0625 0.71875 -0.3125 C 0.46875 -0.570312 0.34375 -0.9375 0.34375 -1.40625 L 0.34375 -3.1875 L 1.09375 -3.1875 L 1.09375 -1.4375 C 1.09375 -0.863281 1.328125 -0.578125 1.796875 -0.578125 C 2.035156 -0.578125 2.210938 -0.644531 2.328125 -0.78125 C 2.453125 -0.914062 2.515625 -1.132812 2.515625 -1.4375 L 2.515625 -3.1875 L 3.25 -3.1875 L 3.25 -1.40625 C 3.25 -0.9375 3.117188 -0.570312 2.859375 -0.3125 C 2.609375 -0.0625 2.253906 0.0625 1.796875 0.0625 Z M 1.796875 0.0625 "/></g></g></g><g fill="#000000" fill-opacity="1"><g transform="translate(178.763891, 230.707164)"><g/></g></g><g fill="#000000" fill-opacity="1"><g transform="translate(182.265912, 230.707164)"><g><path d="M 1.421875 0.0625 C 1.171875 0.0625 0.925781 0.0234375 0.6875 -0.046875 C 0.457031 -0.117188 0.269531 -0.207031 0.125 -0.3125 L 0.375 -0.875 C 0.507812 -0.769531 0.671875 -0.6875 0.859375 -0.625 C 1.054688 -0.5625 1.25 -0.53125 1.4375 -0.53125 C 1.644531 -0.53125 1.796875 -0.5625 1.890625 -0.625 C 1.992188 -0.6875 2.046875 -0.769531 2.046875 -0.875 C 2.046875 -0.957031 2.015625 -1.019531 1.953125 -1.0625 C 1.898438 -1.113281 1.828125 -1.15625 1.734375 -1.1875 C 1.640625 -1.21875 1.515625 -1.253906 1.359375 -1.296875 C 1.109375 -1.347656 0.90625 -1.398438 0.75 -1.453125 C 0.601562 -1.515625 0.472656 -1.609375 0.359375 -1.734375 C 0.242188 -1.867188 0.1875 -2.039062 0.1875 -2.25 C 0.1875 -2.4375 0.238281 -2.601562 0.34375 -2.75 C 0.445312 -2.90625 0.597656 -3.023438 0.796875 -3.109375 C 0.992188 -3.203125 1.238281 -3.25 1.53125 -3.25 C 1.738281 -3.25 1.9375 -3.222656 2.125 -3.171875 C 2.320312 -3.128906 2.492188 -3.0625 2.640625 -2.96875 L 2.421875 -2.40625 C 2.117188 -2.570312 1.820312 -2.65625 1.53125 -2.65625 C 1.320312 -2.65625 1.164062 -2.617188 1.0625 -2.546875 C 0.96875 -2.484375 0.921875 -2.398438 0.921875 -2.296875 C 0.921875 -2.179688 0.976562 -2.097656 1.09375 -2.046875 C 1.207031 -1.992188 1.382812 -1.941406 1.625 -1.890625 C 1.863281 -1.828125 2.0625 -1.765625 2.21875 -1.703125 C 2.375 -1.648438 2.503906 -1.5625 2.609375 -1.4375 C 2.722656 -1.3125 2.78125 -1.144531 2.78125 -0.9375 C 2.78125 -0.75 2.726562 -0.578125 2.625 -0.421875 C 2.53125 -0.273438 2.378906 -0.15625 2.171875 -0.0625 C 1.960938 0.0195312 1.710938 0.0625 1.421875 0.0625 Z M 1.421875 0.0625 "/></g></g></g><g fill="#000000" fill-opacity="1"><g transform="translate(187.388821, 230.707164)"><g><path d="M 1.046875 -2.59375 L 0.015625 -2.59375 L 0.015625 -3.1875 L 2.796875 -3.1875 L 2.796875 -2.59375 L 1.78125 -2.59375 L 1.78125 0 L 1.046875 0 Z M 1.046875 -2.59375 "/></g></g></g><g fill="#000000" fill-opacity="1"><g transform="translate(192.420411, 230.707164)"><g><path d="M 1.921875 0.0625 C 1.585938 0.0625 1.285156 -0.0078125 1.015625 -0.15625 C 0.753906 -0.300781 0.546875 -0.5 0.390625 -0.75 C 0.242188 -1 0.171875 -1.28125 0.171875 -1.59375 C 0.171875 -1.90625 0.242188 -2.1875 0.390625 -2.4375 C 0.546875 -2.6875 0.753906 -2.882812 1.015625 -3.03125 C 1.285156 -3.175781 1.585938 -3.25 1.921875 -3.25 C 2.253906 -3.25 2.550781 -3.175781 2.8125 -3.03125 C 3.082031 -2.882812 3.289062 -2.6875 3.4375 -2.4375 C 3.59375 -2.1875 3.671875 -1.90625 3.671875 -1.59375 C 3.671875 -1.28125 3.59375 -1 3.4375 -0.75 C 3.289062 -0.5 3.082031 -0.300781 2.8125 -0.15625 C 2.550781 -0.0078125 2.253906 0.0625 1.921875 0.0625 Z M 1.921875 -0.578125 C 2.109375 -0.578125 2.28125 -0.617188 2.4375 -0.703125 C 2.59375 -0.785156 2.710938 -0.90625 2.796875 -1.0625 C 2.878906 -1.21875 2.921875 -1.394531 2.921875 -1.59375 C 2.921875 -1.789062 2.878906 -1.96875 2.796875 -2.125 C 2.710938 -2.28125 2.59375 -2.398438 2.4375 -2.484375 C 2.28125 -2.578125 2.109375 -2.625 1.921875 -2.625 C 1.734375 -2.625 1.5625 -2.578125 1.40625 -2.484375 C 1.257812 -2.398438 1.140625 -2.28125 1.046875 -2.125 C 0.960938 -1.96875 0.921875 -1.789062 0.921875 -1.59375 C 0.921875 -1.394531 0.960938 -1.21875 1.046875 -1.0625 C 1.140625 -0.90625 1.257812 -0.785156 1.40625 -0.703125 C 1.5625 -0.617188 1.734375 -0.578125 1.921875 -0.578125 Z M 1.921875 -0.578125 "/></g></g></g><g fill="#000000" fill-opacity="1"><g transform="translate(198.483892, 230.707164)"><g><path d="M 1.90625 0.0625 C 1.582031 0.0625 1.285156 -0.0078125 1.015625 -0.15625 C 0.753906 -0.300781 0.546875 -0.5 0.390625 -0.75 C 0.242188 -1 0.171875 -1.28125 0.171875 -1.59375 C 0.171875 -1.914062 0.242188 -2.203125 0.390625 -2.453125 C 0.546875 -2.703125 0.753906 -2.894531 1.015625 -3.03125 C 1.285156 -3.175781 1.582031 -3.25 1.90625 -3.25 C 2.1875 -3.25 2.4375 -3.195312 2.65625 -3.09375 C 2.882812 -3 3.070312 -2.863281 3.21875 -2.6875 L 2.75 -2.25 C 2.53125 -2.5 2.265625 -2.625 1.953125 -2.625 C 1.753906 -2.625 1.578125 -2.578125 1.421875 -2.484375 C 1.265625 -2.398438 1.140625 -2.28125 1.046875 -2.125 C 0.960938 -1.96875 0.921875 -1.789062 0.921875 -1.59375 C 0.921875 -1.394531 0.960938 -1.21875 1.046875 -1.0625 C 1.140625 -0.90625 1.265625 -0.785156 1.421875 -0.703125 C 1.578125 -0.617188 1.753906 -0.578125 1.953125 -0.578125 C 2.265625 -0.578125 2.53125 -0.703125 2.75 -0.953125 L 3.21875 -0.515625 C 3.070312 -0.328125 2.882812 -0.179688 2.65625 -0.078125 C 2.4375 0.015625 2.1875 0.0625 1.90625 0.0625 Z M 1.90625 0.0625 "/></g></g></g><g fill="#000000" fill-opacity="1"><g transform="translate(204.040563, 230.707164)"><g><path d="M 1.546875 -1.25 L 1.109375 -0.8125 L 1.109375 0 L 0.375 0 L 0.375 -3.1875 L 1.109375 -3.1875 L 1.109375 -1.703125 L 2.53125 -3.1875 L 3.34375 -3.1875 L 2.03125 -1.765625 L 3.421875 0 L 2.5625 0 Z M 1.546875 -1.25 "/></g></g></g><g fill="#000000" fill-opacity="1"><g transform="translate(209.629195, 230.707164)"><g/></g></g><g fill="#000000" fill-opacity="1"><g transform="translate(213.131216, 230.707164)"><g><path d="M 1.90625 -1.125 L 1.90625 0 L 1.171875 0 L 1.171875 -1.140625 L -0.0625 -3.1875 L 0.71875 -3.1875 L 1.578125 -1.78125 L 2.421875 -3.1875 L 3.15625 -3.1875 Z M 1.90625 -1.125 "/></g></g></g><g fill="#000000" fill-opacity="1"><g transform="translate(218.42763, 230.707164)"><g/></g></g><g fill="#000000" fill-opacity="1"><g transform="translate(221.929657, 230.707164)"><g><path d="M 2.859375 -0.59375 L 2.859375 0 L 0.375 0 L 0.375 -3.1875 L 2.796875 -3.1875 L 2.796875 -2.59375 L 1.109375 -2.59375 L 1.109375 -1.90625 L 2.59375 -1.90625 L 2.59375 -1.328125 L 1.109375 -1.328125 L 1.109375 -0.59375 Z M 2.859375 -0.59375 "/></g></g></g><g fill="#000000" fill-opacity="1"><g transform="translate(227.20325, 230.707164)"><g><path d="M 3.828125 0.34375 C 3.722656 0.46875 3.597656 0.5625 3.453125 0.625 C 3.304688 0.695312 3.144531 0.734375 2.96875 0.734375 C 2.726562 0.734375 2.515625 0.679688 2.328125 0.578125 C 2.140625 0.472656 1.921875 0.296875 1.671875 0.046875 C 1.378906 0.00390625 1.117188 -0.0859375 0.890625 -0.234375 C 0.671875 -0.378906 0.492188 -0.570312 0.359375 -0.8125 C 0.234375 -1.050781 0.171875 -1.3125 0.171875 -1.59375 C 0.171875 -1.90625 0.242188 -2.1875 0.390625 -2.4375 C 0.546875 -2.6875 0.753906 -2.882812 1.015625 -3.03125 C 1.285156 -3.175781 1.585938 -3.25 1.921875 -3.25 C 2.253906 -3.25 2.550781 -3.175781 2.8125 -3.03125 C 3.082031 -2.882812 3.289062 -2.6875 3.4375 -2.4375 C 3.59375 -2.1875 3.671875 -1.90625 3.671875 -1.59375 C 3.671875 -1.226562 3.566406 -0.90625 3.359375 -0.625 C 3.148438 -0.34375 2.875 -0.144531 2.53125 -0.03125 C 2.601562 0.0390625 2.675781 0.09375 2.75 0.125 C 2.820312 0.164062 2.898438 0.1875 2.984375 0.1875 C 3.179688 0.1875 3.351562 0.109375 3.5 -0.046875 Z M 0.921875 -1.59375 C 0.921875 -1.394531 0.960938 -1.21875 1.046875 -1.0625 C 1.140625 -0.90625 1.257812 -0.785156 1.40625 -0.703125 C 1.5625 -0.617188 1.734375 -0.578125 1.921875 -0.578125 C 2.109375 -0.578125 2.28125 -0.617188 2.4375 -0.703125 C 2.59375 -0.785156 2.710938 -0.90625 2.796875 -1.0625 C 2.878906 -1.21875 2.921875 -1.394531 2.921875 -1.59375 C 2.921875 -1.789062 2.878906 -1.96875 2.796875 -2.125 C 2.710938 -2.28125 2.59375 -2.398438 2.4375 -2.484375 C 2.28125 -2.578125 2.109375 -2.625 1.921875 -2.625 C 1.734375 -2.625 1.5625 -2.578125 1.40625 -2.484375 C 1.257812 -2.398438 1.140625 -2.28125 1.046875 -2.125 C 0.960938 -1.96875 0.921875 -1.789062 0.921875 -1.59375 Z M 0.921875 -1.59375 "/></g></g></g><g fill="#000000" fill-opacity="1"><g transform="translate(233.266731, 230.707164)"><g><path d="M 1.796875 0.0625 C 1.335938 0.0625 0.976562 -0.0625 0.71875 -0.3125 C 0.46875 -0.570312 0.34375 -0.9375 0.34375 -1.40625 L 0.34375 -3.1875 L 1.09375 -3.1875 L 1.09375 -1.4375 C 1.09375 -0.863281 1.328125 -0.578125 1.796875 -0.578125 C 2.035156 -0.578125 2.210938 -0.644531 2.328125 -0.78125 C 2.453125 -0.914062 2.515625 -1.132812 2.515625 -1.4375 L 2.515625 -3.1875 L 3.25 -3.1875 L 3.25 -1.40625 C 3.25 -0.9375 3.117188 -0.570312 2.859375 -0.3125 C 2.609375 -0.0625 2.253906 0.0625 1.796875 0.0625 Z M 1.796875 0.0625 "/></g></g></g><g fill="#000000" fill-opacity="1"><g transform="translate(239.074525, 230.707164)"><g><path d="M 0.375 -3.1875 L 1.125 -3.1875 L 1.125 0 L 0.375 0 Z M 0.375 -3.1875 "/></g></g></g><g fill="#000000" fill-opacity="1"><g transform="translate(242.782018, 230.707164)"><g><path d="M 1.765625 -3.1875 C 2.046875 -3.1875 2.289062 -3.140625 2.5 -3.046875 C 2.707031 -2.953125 2.863281 -2.816406 2.96875 -2.640625 C 3.082031 -2.472656 3.140625 -2.269531 3.140625 -2.03125 C 3.140625 -1.800781 3.082031 -1.597656 2.96875 -1.421875 C 2.863281 -1.242188 2.707031 -1.109375 2.5 -1.015625 C 2.289062 -0.921875 2.046875 -0.875 1.765625 -0.875 L 1.125 -0.875 L 1.125 0 L 0.375 0 L 0.375 -3.1875 Z M 1.71875 -1.484375 C 1.9375 -1.484375 2.101562 -1.53125 2.21875 -1.625 C 2.34375 -1.71875 2.40625 -1.851562 2.40625 -2.03125 C 2.40625 -2.207031 2.34375 -2.34375 2.21875 -2.4375 C 2.101562 -2.539062 1.9375 -2.59375 1.71875 -2.59375 L 1.125 -2.59375 L 1.125 -1.484375 Z M 1.71875 -1.484375 "/></g></g></g><g fill="#000000" fill-opacity="1"><g transform="translate(248.334126, 230.707164)"><g><path d="M 1.921875 0.0625 C 1.585938 0.0625 1.285156 -0.0078125 1.015625 -0.15625 C 0.753906 -0.300781 0.546875 -0.5 0.390625 -0.75 C 0.242188 -1 0.171875 -1.28125 0.171875 -1.59375 C 0.171875 -1.90625 0.242188 -2.1875 0.390625 -2.4375 C 0.546875 -2.6875 0.753906 -2.882812 1.015625 -3.03125 C 1.285156 -3.175781 1.585938 -3.25 1.921875 -3.25 C 2.253906 -3.25 2.550781 -3.175781 2.8125 -3.03125 C 3.082031 -2.882812 3.289062 -2.6875 3.4375 -2.4375 C 3.59375 -2.1875 3.671875 -1.90625 3.671875 -1.59375 C 3.671875 -1.28125 3.59375 -1 3.4375 -0.75 C 3.289062 -0.5 3.082031 -0.300781 2.8125 -0.15625 C 2.550781 -0.0078125 2.253906 0.0625 1.921875 0.0625 Z M 1.921875 -0.578125 C 2.109375 -0.578125 2.28125 -0.617188 2.4375 -0.703125 C 2.59375 -0.785156 2.710938 -0.90625 2.796875 -1.0625 C 2.878906 -1.21875 2.921875 -1.394531 2.921875 -1.59375 C 2.921875 -1.789062 2.878906 -1.96875 2.796875 -2.125 C 2.710938 -2.28125 2.59375 -2.398438 2.4375 -2.484375 C 2.28125 -2.578125 2.109375 -2.625 1.921875 -2.625 C 1.734375 -2.625 1.5625 -2.578125 1.40625 -2.484375 C 1.257812 -2.398438 1.140625 -2.28125 1.046875 -2.125 C 0.960938 -1.96875 0.921875 -1.789062 0.921875 -1.59375 C 0.921875 -1.394531 0.960938 -1.21875 1.046875 -1.0625 C 1.140625 -0.90625 1.257812 -0.785156 1.40625 -0.703125 C 1.5625 -0.617188 1.734375 -0.578125 1.921875 -0.578125 Z M 1.921875 -0.578125 "/></g></g></g></svg>